STARTFONT 2.1
COMMENT
COMMENT Converted from TrueType font "verdana.ttf" by "ttf2bdf 2.6".
COMMENT
FONT -FreeType-Verdana-Medium-R-Normal--14-100-100-100-P-76-ISO10646-1
SIZE 10 100 100
FONTBOUNDINGBOX 21 17 -1 -3
STARTPROPERTIES 20
FOUNDRY "FreeType"
FAMILY_NAME "Verdana"
WEIGHT_NAME "Medium"
SLANT "R"
SETWIDTH_NAME "Normal"
ADD_STYLE_NAME ""
PIXEL_SIZE 14
POINT_SIZE 100
RESOLUTION_X 100
RESOLUTION_Y 100
SPACING "P"
AVERAGE_WIDTH 76
CHARSET_REGISTRY "ISO10646"
CHARSET_ENCODING "1"
FONT_ASCENT 14
FONT_DESCENT 2
COPYRIGHT "Typeface and data © 1996 Microsoft Corporation. All Rights Reserved"
_TTF_FONTFILE "verdana.ttf"
_TTF_PSNAME "Verdana"
_XFREE86_GLYPH_RANGES "32_126 160_383 402 416_417 431_432 506_511 710_711 713 728_733 768_769 771 777 803 894 900_906 908 910_929 931_974 1025_1036 1038_1103 1105_1116 1118_1119 1168_1169 7808_7813 7840_7929 8211_8213 8215_8222 8224_8226 8230 8240 8242_8243 8249_8250 8252 8254 8260 8319 8355_8356 8359 8363_8364 8453 8467 8470 8482 8486 8494 8539_8542 8706 8710 8719 8721_8722 8725 8729_8730 8734 8747 8776 8800 8804_8805 9633 9642_9643 9674 9679 9702 61441_61442 61444_61453 64257_64258"
ENDPROPERTIES
CHARS 680
STARTCHAR 0020
ENCODING 32
SWIDTH 360 0
DWIDTH 5 0
BBX 1 1 0 0
BITMAP
00
ENDCHAR
STARTCHAR 0021
ENCODING 33
SWIDTH 432 0
DWIDTH 6 0
BBX 1 10 2 0
BITMAP
80
80
80
80
80
80
80
00
80
80
ENDCHAR
STARTCHAR 0022
ENCODING 34
SWIDTH 432 0
DWIDTH 6 0
BBX 4 4 1 7
BITMAP
90
90
90
90
ENDCHAR
STARTCHAR 0023
ENCODING 35
SWIDTH 792 0
DWIDTH 11 0
BBX 9 10 1 0
BITMAP
0900
0900
1200
7F80
1200
2400
FF00
2400
4800
4800
ENDCHAR
STARTCHAR 0024
ENCODING 36
SWIDTH 648 0
DWIDTH 9 0
BBX 7 13 1 -2
BITMAP
10
10
7C
92
90
90
7C
12
12
92
7C
10
10
ENDCHAR
STARTCHAR 0025
ENCODING 37
SWIDTH 1080 0
DWIDTH 15 0
BBX 13 10 1 0
BITMAP
7040
8880
8900
8900
8A70
7288
0488
0888
0888
1070
ENDCHAR
STARTCHAR 0026
ENCODING 38
SWIDTH 720 0
DWIDTH 10 0
BBX 9 10 1 0
BITMAP
3800
4400
4400
4C00
3100
4900
8500
8200
4500
3880
ENDCHAR
STARTCHAR 0027
ENCODING 39
SWIDTH 288 0
DWIDTH 4 0
BBX 1 4 1 7
BITMAP
80
80
80
80
ENDCHAR
STARTCHAR 0028
ENCODING 40
SWIDTH 432 0
DWIDTH 6 0
BBX 4 14 1 -3
BITMAP
10
20
40
40
80
80
80
80
80
80
40
40
20
10
ENDCHAR
STARTCHAR 0029
ENCODING 41
SWIDTH 432 0
DWIDTH 6 0
BBX 4 14 1 -3
BITMAP
80
40
20
20
10
10
10
10
10
10
20
20
40
80
ENDCHAR
STARTCHAR 002A
ENCODING 42
SWIDTH 648 0
DWIDTH 9 0
BBX 7 7 1 4
BITMAP
10
92
54
38
54
92
10
ENDCHAR
STARTCHAR 002B
ENCODING 43
SWIDTH 792 0
DWIDTH 11 0
BBX 9 9 1 0
BITMAP
0800
0800
0800
0800
FF80
0800
0800
0800
0800
ENDCHAR
STARTCHAR 002C
ENCODING 44
SWIDTH 360 0
DWIDTH 5 0
BBX 2 4 1 -2
BITMAP
40
40
40
80
ENDCHAR
STARTCHAR 002D
ENCODING 45
SWIDTH 504 0
DWIDTH 7 0
BBX 5 1 1 4
BITMAP
F8
ENDCHAR
STARTCHAR 002E
ENCODING 46
SWIDTH 360 0
DWIDTH 5 0
BBX 1 2 2 0
BITMAP
80
80
ENDCHAR
STARTCHAR 002F
ENCODING 47
SWIDTH 432 0
DWIDTH 6 0
BBX 6 13 0 -2
BITMAP
04
08
08
08
10
10
20
20
20
40
40
80
80
ENDCHAR
STARTCHAR 0030
ENCODING 48
SWIDTH 648 0
DWIDTH 9 0
BBX 7 10 1 0
BITMAP
38
44
82
82
82
82
82
82
44
38
ENDCHAR
STARTCHAR 0031
ENCODING 49
SWIDTH 648 0
DWIDTH 9 0
BBX 5 10 2 0
BITMAP
20
E0
20
20
20
20
20
20
20
F8
ENDCHAR
STARTCHAR 0032
ENCODING 50
SWIDTH 648 0
DWIDTH 9 0
BBX 7 10 1 0
BITMAP
7C
82
02
02
04
18
20
40
80
FE
ENDCHAR
STARTCHAR 0033
ENCODING 51
SWIDTH 648 0
DWIDTH 9 0
BBX 7 10 1 0
BITMAP
7C
82
02
04
38
04
02
02
84
78
ENDCHAR
STARTCHAR 0034
ENCODING 52
SWIDTH 648 0
DWIDTH 9 0
BBX 8 10 1 0
BITMAP
04
0C
14
24
44
84
FF
04
04
04
ENDCHAR
STARTCHAR 0035
ENCODING 53
SWIDTH 648 0
DWIDTH 9 0
BBX 7 10 1 0
BITMAP
FE
80
80
80
F8
04
02
02
84
78
ENDCHAR
STARTCHAR 0036
ENCODING 54
SWIDTH 648 0
DWIDTH 9 0
BBX 7 10 1 0
BITMAP
1C
60
40
80
F8
84
82
82
44
38
ENDCHAR
STARTCHAR 0037
ENCODING 55
SWIDTH 648 0
DWIDTH 9 0
BBX 7 10 1 0
BITMAP
FE
02
04
04
08
08
10
20
20
40
ENDCHAR
STARTCHAR 0038
ENCODING 56
SWIDTH 648 0
DWIDTH 9 0
BBX 7 10 1 0
BITMAP
7C
82
82
82
7C
82
82
82
82
7C
ENDCHAR
STARTCHAR 0039
ENCODING 57
SWIDTH 648 0
DWIDTH 9 0
BBX 7 10 1 0
BITMAP
38
44
82
82
42
3E
02
04
0C
70
ENDCHAR
STARTCHAR 003A
ENCODING 58
SWIDTH 432 0
DWIDTH 6 0
BBX 1 8 2 0
BITMAP
80
80
00
00
00
00
80
80
ENDCHAR
STARTCHAR 003B
ENCODING 59
SWIDTH 432 0
DWIDTH 6 0
BBX 2 10 1 -2
BITMAP
40
40
00
00
00
00
40
40
40
80
ENDCHAR
STARTCHAR 003C
ENCODING 60
SWIDTH 792 0
DWIDTH 11 0
BBX 8 8 1 1
BITMAP
03
0C
30
C0
C0
30
0C
03
ENDCHAR
STARTCHAR 003D
ENCODING 61
SWIDTH 792 0
DWIDTH 11 0
BBX 8 4 2 2
BITMAP
FF
00
00
FF
ENDCHAR
STARTCHAR 003E
ENCODING 62
SWIDTH 792 0
DWIDTH 11 0
BBX 8 8 2 1
BITMAP
C0
30
0C
03
03
0C
30
C0
ENDCHAR
STARTCHAR 003F
ENCODING 63
SWIDTH 576 0
DWIDTH 8 0
BBX 6 10 1 0
BITMAP
78
84
04
04
08
30
20
00
20
20
ENDCHAR
STARTCHAR 0040
ENCODING 64
SWIDTH 1008 0
DWIDTH 14 0
BBX 12 12 1 -2
BITMAP
0F80
3040
4020
4F90
9090
9090
9090
9090
4FE0
4000
3000
0F80
ENDCHAR
STARTCHAR 0041
ENCODING 65
SWIDTH 720 0
DWIDTH 10 0
BBX 10 10 0 0
BITMAP
0C00
1200
1200
2100
2100
2100
7F80
4080
8040
8040
ENDCHAR
STARTCHAR 0042
ENCODING 66
SWIDTH 720 0
DWIDTH 10 0
BBX 8 10 1 0
BITMAP
FC
82
82
82
FC
82
81
81
82
FC
ENDCHAR
STARTCHAR 0043
ENCODING 67
SWIDTH 720 0
DWIDTH 10 0
BBX 8 10 1 0
BITMAP
1E
61
40
80
80
80
80
40
61
1E
ENDCHAR
STARTCHAR 0044
ENCODING 68
SWIDTH 792 0
DWIDTH 11 0
BBX 9 10 1 0
BITMAP
FC00
8300
8100
8080
8080
8080
8080
8100
8300
FC00
ENDCHAR
STARTCHAR 0045
ENCODING 69
SWIDTH 648 0
DWIDTH 9 0
BBX 7 10 1 0
BITMAP
FE
80
80
80
FE
80
80
80
80
FE
ENDCHAR
STARTCHAR 0046
ENCODING 70
SWIDTH 576 0
DWIDTH 8 0
BBX 7 10 1 0
BITMAP
FE
80
80
80
FC
80
80
80
80
80
ENDCHAR
STARTCHAR 0047
ENCODING 71
SWIDTH 792 0
DWIDTH 11 0
BBX 9 10 1 0
BITMAP
1E00
6180
4080
8000
8000
8780
8080
4080
6080
1F00
ENDCHAR
STARTCHAR 0048
ENCODING 72
SWIDTH 720 0
DWIDTH 10 0
BBX 8 10 1 0
BITMAP
81
81
81
81
FF
81
81
81
81
81
ENDCHAR
STARTCHAR 0049
ENCODING 73
SWIDTH 360 0
DWIDTH 5 0
BBX 3 10 1 0
BITMAP
E0
40
40
40
40
40
40
40
40
E0
ENDCHAR
STARTCHAR 004A
ENCODING 74
SWIDTH 432 0
DWIDTH 6 0
BBX 5 10 0 0
BITMAP
38
08
08
08
08
08
08
08
08
F0
ENDCHAR
STARTCHAR 004B
ENCODING 75
SWIDTH 720 0
DWIDTH 10 0
BBX 8 10 1 0
BITMAP
82
84
88
90
A0
D0
88
84
82
81
ENDCHAR
STARTCHAR 004C
ENCODING 76
SWIDTH 576 0
DWIDTH 8 0
BBX 7 10 1 0
BITMAP
80
80
80
80
80
80
80
80
80
FE
ENDCHAR
STARTCHAR 004D
ENCODING 77
SWIDTH 792 0
DWIDTH 11 0
BBX 9 10 1 0
BITMAP
C180
C180
A280
A280
9480
9480
8880
8880
8080
8080
ENDCHAR
STARTCHAR 004E
ENCODING 78
SWIDTH 720 0
DWIDTH 10 0
BBX 8 10 1 0
BITMAP
C1
C1
A1
91
91
89
89
85
83
83
ENDCHAR
STARTCHAR 004F
ENCODING 79
SWIDTH 792 0
DWIDTH 11 0
BBX 9 10 1 0
BITMAP
1C00
6300
4100
8080
8080
8080
8080
4100
6300
1C00
ENDCHAR
STARTCHAR 0050
ENCODING 80
SWIDTH 576 0
DWIDTH 8 0
BBX 7 10 1 0
BITMAP
F8
84
82
82
84
F8
80
80
80
80
ENDCHAR
STARTCHAR 0051
ENCODING 81
SWIDTH 792 0
DWIDTH 11 0
BBX 9 13 1 -3
BITMAP
1C00
6300
4100
8080
8080
8080
8080
4100
6300
1C00
0400
0400
0380
ENDCHAR
STARTCHAR 0052
ENCODING 82
SWIDTH 720 0
DWIDTH 10 0
BBX 8 10 1 0
BITMAP
F8
84
84
84
88
F0
88
84
82
81
ENDCHAR
STARTCHAR 0053
ENCODING 83
SWIDTH 720 0
DWIDTH 10 0
BBX 8 10 1 0
BITMAP
3E
41
80
80
70
0E
01
81
42
3C
ENDCHAR
STARTCHAR 0054
ENCODING 84
SWIDTH 648 0
DWIDTH 9 0
BBX 9 10 0 0
BITMAP
FF80
0800
0800
0800
0800
0800
0800
0800
0800
0800
ENDCHAR
STARTCHAR 0055
ENCODING 85
SWIDTH 720 0
DWIDTH 10 0
BBX 8 10 1 0
BITMAP
81
81
81
81
81
81
81
81
42
3C
ENDCHAR
STARTCHAR 0056
ENCODING 86
SWIDTH 720 0
DWIDTH 10 0
BBX 10 10 0 0
BITMAP
8040
8040
4080
4080
2100
2100
2100
1200
1200
0C00
ENDCHAR
STARTCHAR 0057
ENCODING 87
SWIDTH 1080 0
DWIDTH 15 0
BBX 13 10 1 0
BITMAP
8208
8208
4510
4510
4510
28A0
28A0
28A0
1040
1040
ENDCHAR
STARTCHAR 0058
ENCODING 88
SWIDTH 720 0
DWIDTH 10 0
BBX 8 10 1 0
BITMAP
81
42
24
24
18
18
24
24
42
81
ENDCHAR
STARTCHAR 0059
ENCODING 89
SWIDTH 648 0
DWIDTH 9 0
BBX 9 10 0 0
BITMAP
8080
4100
2200
2200
1400
0800
0800
0800
0800
0800
ENDCHAR
STARTCHAR 005A
ENCODING 90
SWIDTH 720 0
DWIDTH 10 0
BBX 8 10 1 0
BITMAP
FF
01
02
04
08
10
20
40
80
FF
ENDCHAR
STARTCHAR 005B
ENCODING 91
SWIDTH 432 0
DWIDTH 6 0
BBX 4 14 2 -3
BITMAP
F0
80
80
80
80
80
80
80
80
80
80
80
80
F0
ENDCHAR
STARTCHAR 005C
ENCODING 92
SWIDTH 432 0
DWIDTH 6 0
BBX 6 13 0 -2
BITMAP
80
80
40
40
20
20
20
10
10
08
08
08
04
ENDCHAR
STARTCHAR 005D
ENCODING 93
SWIDTH 432 0
DWIDTH 6 0
BBX 4 14 1 -3
BITMAP
F0
10
10
10
10
10
10
10
10
10
10
10
10
F0
ENDCHAR
STARTCHAR 005E
ENCODING 94
SWIDTH 792 0
DWIDTH 11 0
BBX 9 5 1 5
BITMAP
0800
1400
2200
4100
8080
ENDCHAR
STARTCHAR 005F
ENCODING 95
SWIDTH 648 0
DWIDTH 9 0
BBX 9 1 0 -2
BITMAP
FF80
ENDCHAR
STARTCHAR 0060
ENCODING 96
SWIDTH 648 0
DWIDTH 9 0
BBX 2 2 3 9
BITMAP
80
40
ENDCHAR
STARTCHAR 0061
ENCODING 97
SWIDTH 576 0
DWIDTH 8 0
BBX 6 8 1 0
BITMAP
38
44
04
7C
84
84
8C
74
ENDCHAR
STARTCHAR 0062
ENCODING 98
SWIDTH 648 0
DWIDTH 9 0
BBX 7 11 1 0
BITMAP
80
80
80
B8
C4
82
82
82
82
84
F8
ENDCHAR
STARTCHAR 0063
ENCODING 99
SWIDTH 504 0
DWIDTH 7 0
BBX 6 8 1 0
BITMAP
38
44
80
80
80
80
44
38
ENDCHAR
STARTCHAR 0064
ENCODING 100
SWIDTH 648 0
DWIDTH 9 0
BBX 7 11 1 0
BITMAP
02
02
02
3E
42
82
82
82
82
46
3A
ENDCHAR
STARTCHAR 0065
ENCODING 101
SWIDTH 576 0
DWIDTH 8 0
BBX 6 8 1 0
BITMAP
30
48
84
FC
80
80
44
38
ENDCHAR
STARTCHAR 0066
ENCODING 102
SWIDTH 360 0
DWIDTH 5 0
BBX 5 11 1 0
BITMAP
38
40
40
F8
40
40
40
40
40
40
40
ENDCHAR
STARTCHAR 0067
ENCODING 103
SWIDTH 648 0
DWIDTH 9 0
BBX 7 11 1 -3
BITMAP
3E
42
82
82
82
82
46
3A
02
44
38
ENDCHAR
STARTCHAR 0068
ENCODING 104
SWIDTH 648 0
DWIDTH 9 0
BBX 7 11 1 0
BITMAP
80
80
80
BC
C2
82
82
82
82
82
82
ENDCHAR
STARTCHAR 0069
ENCODING 105
SWIDTH 216 0
DWIDTH 3 0
BBX 1 10 1 0
BITMAP
80
00
80
80
80
80
80
80
80
80
ENDCHAR
STARTCHAR 006A
ENCODING 106
SWIDTH 360 0
DWIDTH 5 0
BBX 4 13 0 -3
BITMAP
10
00
70
10
10
10
10
10
10
10
10
10
E0
ENDCHAR
STARTCHAR 006B
ENCODING 107
SWIDTH 576 0
DWIDTH 8 0
BBX 6 11 1 0
BITMAP
80
80
80
84
88
90
A0
E0
90
88
84
ENDCHAR
STARTCHAR 006C
ENCODING 108
SWIDTH 216 0
DWIDTH 3 0
BBX 1 11 1 0
BITMAP
80
80
80
80
80
80
80
80
80
80
80
ENDCHAR
STARTCHAR 006D
ENCODING 109
SWIDTH 936 0
DWIDTH 13 0
BBX 11 8 1 0
BITMAP
B9C0
C620
8420
8420
8420
8420
8420
8420
ENDCHAR
STARTCHAR 006E
ENCODING 110
SWIDTH 648 0
DWIDTH 9 0
BBX 7 8 1 0
BITMAP
BC
C2
82
82
82
82
82
82
ENDCHAR
STARTCHAR 006F
ENCODING 111
SWIDTH 648 0
DWIDTH 9 0
BBX 7 8 1 0
BITMAP
38
44
82
82
82
82
44
38
ENDCHAR
STARTCHAR 0070
ENCODING 112
SWIDTH 648 0
DWIDTH 9 0
BBX 7 11 1 -3
BITMAP
B8
C4
82
82
82
82
84
F8
80
80
80
ENDCHAR
STARTCHAR 0071
ENCODING 113
SWIDTH 648 0
DWIDTH 9 0
BBX 7 11 1 -3
BITMAP
3E
42
82
82
82
82
46
3A
02
02
02
ENDCHAR
STARTCHAR 0072
ENCODING 114
SWIDTH 432 0
DWIDTH 6 0
BBX 5 8 1 0
BITMAP
B8
C0
80
80
80
80
80
80
ENDCHAR
STARTCHAR 0073
ENCODING 115
SWIDTH 576 0
DWIDTH 8 0
BBX 6 8 1 0
BITMAP
78
84
80
60
18
04
84
78
ENDCHAR
STARTCHAR 0074
ENCODING 116
SWIDTH 432 0
DWIDTH 6 0
BBX 5 10 1 0
BITMAP
40
40
F8
40
40
40
40
40
40
38
ENDCHAR
STARTCHAR 0075
ENCODING 117
SWIDTH 648 0
DWIDTH 9 0
BBX 7 8 1 0
BITMAP
82
82
82
82
82
82
86
7A
ENDCHAR
STARTCHAR 0076
ENCODING 118
SWIDTH 576 0
DWIDTH 8 0
BBX 6 8 1 0
BITMAP
84
84
48
48
48
30
30
30
ENDCHAR
STARTCHAR 0077
ENCODING 119
SWIDTH 792 0
DWIDTH 11 0
BBX 9 8 1 0
BITMAP
8880
8880
5500
5500
5500
5500
2200
2200
ENDCHAR
STARTCHAR 0078
ENCODING 120
SWIDTH 648 0
DWIDTH 9 0
BBX 7 8 1 0
BITMAP
82
44
28
10
10
28
44
82
ENDCHAR
STARTCHAR 0079
ENCODING 121
SWIDTH 576 0
DWIDTH 8 0
BBX 6 11 1 -3
BITMAP
84
84
48
48
48
30
30
30
20
20
40
ENDCHAR
STARTCHAR 007A
ENCODING 122
SWIDTH 576 0
DWIDTH 8 0
BBX 6 8 1 0
BITMAP
FC
04
08
10
20
40
80
FC
ENDCHAR
STARTCHAR 007B
ENCODING 123
SWIDTH 648 0
DWIDTH 9 0
BBX 7 14 1 -3
BITMAP
0E
10
10
10
10
20
C0
20
10
10
10
10
10
0E
ENDCHAR
STARTCHAR 007C
ENCODING 124
SWIDTH 432 0
DWIDTH 6 0
BBX 1 14 3 -3
BITMAP
80
80
80
80
80
80
80
80
80
80
80
80
80
80
ENDCHAR
STARTCHAR 007D
ENCODING 125
SWIDTH 648 0
DWIDTH 9 0
BBX 7 14 1 -3
BITMAP
E0
10
10
10
10
08
06
08
10
10
10
10
10
E0
ENDCHAR
STARTCHAR 007E
ENCODING 126
SWIDTH 792 0
DWIDTH 11 0
BBX 9 4 1 2
BITMAP
7080
8880
8880
8700
ENDCHAR
STARTCHAR 00A0
ENCODING 160
SWIDTH 360 0
DWIDTH 5 0
BBX 1 1 0 0
BITMAP
00
ENDCHAR
STARTCHAR 00A1
ENCODING 161
SWIDTH 432 0
DWIDTH 6 0
BBX 1 10 2 0
BITMAP
80
80
00
80
80
80
80
80
80
80
ENDCHAR
STARTCHAR 00A2
ENCODING 162
SWIDTH 648 0
DWIDTH 9 0
BBX 6 12 1 -2
BITMAP
10
10
38
54
90
90
90
90
54
38
10
10
ENDCHAR
STARTCHAR 00A3
ENCODING 163
SWIDTH 648 0
DWIDTH 9 0
BBX 7 10 1 0
BITMAP
1C
22
20
20
20
FC
20
20
40
FE
ENDCHAR
STARTCHAR 00A4
ENCODING 164
SWIDTH 648 0
DWIDTH 9 0
BBX 6 6 1 2
BITMAP
84
78
48
48
78
84
ENDCHAR
STARTCHAR 00A5
ENCODING 165
SWIDTH 648 0
DWIDTH 9 0
BBX 7 10 1 0
BITMAP
82
44
44
28
28
10
FE
10
10
10
ENDCHAR
STARTCHAR 00A6
ENCODING 166
SWIDTH 432 0
DWIDTH 6 0
BBX 1 14 3 -3
BITMAP
80
80
80
80
80
80
00
00
80
80
80
80
80
80
ENDCHAR
STARTCHAR 00A7
ENCODING 167
SWIDTH 648 0
DWIDTH 9 0
BBX 7 13 1 -3
BITMAP
7C
82
80
40
78
84
82
42
3C
04
02
82
7C
ENDCHAR
STARTCHAR 00A8
ENCODING 168
SWIDTH 648 0
DWIDTH 9 0
BBX 4 1 2 9
BITMAP
90
ENDCHAR
STARTCHAR 00A9
ENCODING 169
SWIDTH 1008 0
DWIDTH 14 0
BBX 12 12 1 -2
BITMAP
0F00
30C0
4020
4F20
9090
9010
9010
9090
4F20
4020
30C0
0F00
ENDCHAR
STARTCHAR 00AA
ENCODING 170
SWIDTH 576 0
DWIDTH 8 0
BBX 5 7 1 3
BITMAP
70
08
78
88
88
88
78
ENDCHAR
STARTCHAR 00AB
ENCODING 171
SWIDTH 648 0
DWIDTH 9 0
BBX 7 7 1 1
BITMAP
12
24
48
90
48
24
12
ENDCHAR
STARTCHAR 00AC
ENCODING 172
SWIDTH 792 0
DWIDTH 11 0
BBX 9 5 1 0
BITMAP
FF80
0080
0080
0080
0080
ENDCHAR
STARTCHAR 00AD
ENCODING 173
SWIDTH 504 0
DWIDTH 7 0
BBX 5 1 1 4
BITMAP
F8
ENDCHAR
STARTCHAR 00AE
ENCODING 174
SWIDTH 1008 0
DWIDTH 14 0
BBX 12 12 1 -2
BITMAP
0F00
30C0
4020
4F20
8890
8890
8F10
8910
48A0
4020
30C0
0F00
ENDCHAR
STARTCHAR 00AF
ENCODING 175
SWIDTH 648 0
DWIDTH 9 0
BBX 9 1 0 11
BITMAP
FF80
ENDCHAR
STARTCHAR 00B0
ENCODING 176
SWIDTH 576 0
DWIDTH 8 0
BBX 5 5 1 5
BITMAP
70
88
88
88
70
ENDCHAR
STARTCHAR 00B1
ENCODING 177
SWIDTH 792 0
DWIDTH 11 0
BBX 9 9 1 1
BITMAP
0800
0800
0800
0800
FF80
0800
0800
0800
FF80
ENDCHAR
STARTCHAR 00B2
ENCODING 178
SWIDTH 576 0
DWIDTH 8 0
BBX 5 6 1 4
BITMAP
70
88
08
10
60
F8
ENDCHAR
STARTCHAR 00B3
ENCODING 179
SWIDTH 576 0
DWIDTH 8 0
BBX 5 6 1 4
BITMAP
F0
08
70
08
08
F0
ENDCHAR
STARTCHAR 00B4
ENCODING 180
SWIDTH 648 0
DWIDTH 9 0
BBX 2 2 4 9
BITMAP
40
80
ENDCHAR
STARTCHAR 00B5
ENCODING 181
SWIDTH 648 0
DWIDTH 9 0
BBX 7 11 1 -3
BITMAP
82
82
82
82
82
82
C6
BA
80
80
80
ENDCHAR
STARTCHAR 00B6
ENCODING 182
SWIDTH 648 0
DWIDTH 9 0
BBX 7 12 1 -2
BITMAP
7E
FA
FA
FA
FA
7A
0A
0A
0A
0A
0A
0A
ENDCHAR
STARTCHAR 00B7
ENCODING 183
SWIDTH 360 0
DWIDTH 5 0
BBX 1 2 2 4
BITMAP
80
80
ENDCHAR
STARTCHAR 00B8
ENCODING 184
SWIDTH 648 0
DWIDTH 9 0
BBX 4 3 2 -3
BITMAP
10
10
E0
ENDCHAR
STARTCHAR 00B9
ENCODING 185
SWIDTH 576 0
DWIDTH 8 0
BBX 5 6 2 4
BITMAP
20
E0
20
20
20
F8
ENDCHAR
STARTCHAR 00BA
ENCODING 186
SWIDTH 576 0
DWIDTH 8 0
BBX 6 7 1 3
BITMAP
30
48
84
84
84
48
30
ENDCHAR
STARTCHAR 00BB
ENCODING 187
SWIDTH 648 0
DWIDTH 9 0
BBX 7 7 1 1
BITMAP
90
48
24
12
24
48
90
ENDCHAR
STARTCHAR 00BC
ENCODING 188
SWIDTH 1008 0
DWIDTH 14 0
BBX 12 10 1 0
BITMAP
4100
C100
4200
4200
4420
4460
08A0
0920
11F0
1020
ENDCHAR
STARTCHAR 00BD
ENCODING 189
SWIDTH 1008 0
DWIDTH 14 0
BBX 12 10 1 0
BITMAP
4100
C100
4200
4200
4460
4490
0810
0820
1040
10F0
ENDCHAR
STARTCHAR 00BE
ENCODING 190
SWIDTH 1008 0
DWIDTH 14 0
BBX 12 10 1 0
BITMAP
E080
1100
6100
1200
1220
E460
04A0
0920
09F0
1020
ENDCHAR
STARTCHAR 00BF
ENCODING 191
SWIDTH 576 0
DWIDTH 8 0
BBX 6 10 1 0
BITMAP
10
10
00
10
10
60
80
80
84
78
ENDCHAR
STARTCHAR 00C0
ENCODING 192
SWIDTH 720 0
DWIDTH 10 0
BBX 10 14 0 0
BITMAP
0800
0400
0000
0000
0C00
1200
1200
2100
2100
2100
7F80
4080
8040
8040
ENDCHAR
STARTCHAR 00C1
ENCODING 193
SWIDTH 720 0
DWIDTH 10 0
BBX 10 14 0 0
BITMAP
0400
0800
0000
0000
0C00
1200
1200
2100
2100
2100
7F80
4080
8040
8040
ENDCHAR
STARTCHAR 00C2
ENCODING 194
SWIDTH 720 0
DWIDTH 10 0
BBX 10 14 0 0
BITMAP
0C00
1200
0000
0000
0C00
1200
1200
2100
2100
2100
7F80
4080
8040
8040
ENDCHAR
STARTCHAR 00C3
ENCODING 195
SWIDTH 720 0
DWIDTH 10 0
BBX 10 14 0 0
BITMAP
1900
2600
0000
0000
0C00
1200
1200
2100
2100
2100
7F80
4080
8040
8040
ENDCHAR
STARTCHAR 00C4
ENCODING 196
SWIDTH 720 0
DWIDTH 10 0
BBX 10 13 0 0
BITMAP
1200
0000
0000
0C00
1200
1200
2100
2100
2100
7F80
4080
8040
8040
ENDCHAR
STARTCHAR 00C5
ENCODING 197
SWIDTH 720 0
DWIDTH 10 0
BBX 10 13 0 0
BITMAP
0C00
1200
1200
0C00
0C00
1200
1200
2100
2100
7F80
4080
8040
8040
ENDCHAR
STARTCHAR 00C6
ENCODING 198
SWIDTH 1008 0
DWIDTH 14 0
BBX 13 10 0 0
BITMAP
0FF8
1900
1100
1100
21F8
3F00
4100
4100
4100
81F8
ENDCHAR
STARTCHAR 00C7
ENCODING 199
SWIDTH 720 0
DWIDTH 10 0
BBX 8 13 1 -3
BITMAP
1E
61
40
80
80
80
80
40
61
1E
04
04
38
ENDCHAR
STARTCHAR 00C8
ENCODING 200
SWIDTH 648 0
DWIDTH 9 0
BBX 7 14 1 0
BITMAP
10
08
00
00
FE
80
80
80
FE
80
80
80
80
FE
ENDCHAR
STARTCHAR 00C9
ENCODING 201
SWIDTH 648 0
DWIDTH 9 0
BBX 7 14 1 0
BITMAP
08
10
00
00
FE
80
80
80
FE
80
80
80
80
FE
ENDCHAR
STARTCHAR 00CA
ENCODING 202
SWIDTH 648 0
DWIDTH 9 0
BBX 7 14 1 0
BITMAP
18
24
00
00
FE
80
80
80
FE
80
80
80
80
FE
ENDCHAR
STARTCHAR 00CB
ENCODING 203
SWIDTH 648 0
DWIDTH 9 0
BBX 7 13 1 0
BITMAP
24
00
00
FE
80
80
80
FE
80
80
80
80
FE
ENDCHAR
STARTCHAR 00CC
ENCODING 204
SWIDTH 360 0
DWIDTH 5 0
BBX 3 14 1 0
BITMAP
40
20
00
00
E0
40
40
40
40
40
40
40
40
E0
ENDCHAR
STARTCHAR 00CD
ENCODING 205
SWIDTH 360 0
DWIDTH 5 0
BBX 3 14 1 0
BITMAP
20
40
00
00
E0
40
40
40
40
40
40
40
40
E0
ENDCHAR
STARTCHAR 00CE
ENCODING 206
SWIDTH 360 0
DWIDTH 5 0
BBX 4 14 1 0
BITMAP
60
90
00
00
E0
40
40
40
40
40
40
40
40
E0
ENDCHAR
STARTCHAR 00CF
ENCODING 207
SWIDTH 360 0
DWIDTH 5 0
BBX 5 13 0 0
BITMAP
88
00
00
70
20
20
20
20
20
20
20
20
70
ENDCHAR
STARTCHAR 00D0
ENCODING 208
SWIDTH 792 0
DWIDTH 11 0
BBX 10 10 0 0
BITMAP
7E00
4180
4080
4040
F840
4040
4040
4080
4180
7E00
ENDCHAR
STARTCHAR 00D1
ENCODING 209
SWIDTH 720 0
DWIDTH 10 0
BBX 8 14 1 0
BITMAP
32
4C
00
00
C1
C1
A1
91
91
89
89
85
83
83
ENDCHAR
STARTCHAR 00D2
ENCODING 210
SWIDTH 792 0
DWIDTH 11 0
BBX 9 14 1 0
BITMAP
0800
0400
0000
0000
1C00
6300
4100
8080
8080
8080
8080
4100
6300
1C00
ENDCHAR
STARTCHAR 00D3
ENCODING 211
SWIDTH 792 0
DWIDTH 11 0
BBX 9 14 1 0
BITMAP
0400
0800
0000
0000
1C00
6300
4100
8080
8080
8080
8080
4100
6300
1C00
ENDCHAR
STARTCHAR 00D4
ENCODING 212
SWIDTH 792 0
DWIDTH 11 0
BBX 9 14 1 0
BITMAP
0C00
1200
0000
0000
1C00
6300
4100
8080
8080
8080
8080
4100
6300
1C00
ENDCHAR
STARTCHAR 00D5
ENCODING 213
SWIDTH 792 0
DWIDTH 11 0
BBX 9 14 1 0
BITMAP
1900
2600
0000
0000
1C00
6300
4100
8080
8080
8080
8080
4100
6300
1C00
ENDCHAR
STARTCHAR 00D6
ENCODING 214
SWIDTH 792 0
DWIDTH 11 0
BBX 9 13 1 0
BITMAP
2200
0000
0000
1C00
6300
4100
8080
8080
8080
8080
4100
6300
1C00
ENDCHAR
STARTCHAR 00D7
ENCODING 215
SWIDTH 792 0
DWIDTH 11 0
BBX 7 7 2 1
BITMAP
82
44
28
10
28
44
82
ENDCHAR
STARTCHAR 00D8
ENCODING 216
SWIDTH 792 0
DWIDTH 11 0
BBX 9 12 1 -1
BITMAP
0080
1D00
6300
4300
8480
8880
8880
9080
6100
6300
5C00
8000
ENDCHAR
STARTCHAR 00D9
ENCODING 217
SWIDTH 720 0
DWIDTH 10 0
BBX 8 14 1 0
BITMAP
10
08
00
00
81
81
81
81
81
81
81
81
42
3C
ENDCHAR
STARTCHAR 00DA
ENCODING 218
SWIDTH 720 0
DWIDTH 10 0
BBX 8 14 1 0
BITMAP
04
08
00
00
81
81
81
81
81
81
81
81
42
3C
ENDCHAR
STARTCHAR 00DB
ENCODING 219
SWIDTH 720 0
DWIDTH 10 0
BBX 8 14 1 0
BITMAP
18
24
00
00
81
81
81
81
81
81
81
81
42
3C
ENDCHAR
STARTCHAR 00DC
ENCODING 220
SWIDTH 720 0
DWIDTH 10 0
BBX 8 13 1 0
BITMAP
24
00
00
81
81
81
81
81
81
81
81
42
3C
ENDCHAR
STARTCHAR 00DD
ENCODING 221
SWIDTH 648 0
DWIDTH 9 0
BBX 9 14 0 0
BITMAP
0400
0800
0000
0000
8080
4100
2200
2200
1400
0800
0800
0800
0800
0800
ENDCHAR
STARTCHAR 00DE
ENCODING 222
SWIDTH 576 0
DWIDTH 8 0
BBX 7 10 1 0
BITMAP
80
80
F8
84
82
82
84
F8
80
80
ENDCHAR
STARTCHAR 00DF
ENCODING 223
SWIDTH 648 0
DWIDTH 9 0
BBX 7 11 1 0
BITMAP
78
84
84
8C
B0
8C
82
82
82
84
B8
ENDCHAR
STARTCHAR 00E0
ENCODING 224
SWIDTH 576 0
DWIDTH 8 0
BBX 6 11 1 0
BITMAP
10
08
00
38
44
04
7C
84
84
8C
74
ENDCHAR
STARTCHAR 00E1
ENCODING 225
SWIDTH 576 0
DWIDTH 8 0
BBX 6 11 1 0
BITMAP
08
10
00
38
44
04
7C
84
84
8C
74
ENDCHAR
STARTCHAR 00E2
ENCODING 226
SWIDTH 576 0
DWIDTH 8 0
BBX 6 11 1 0
BITMAP
18
24
00
38
44
04
7C
84
84
8C
74
ENDCHAR
STARTCHAR 00E3
ENCODING 227
SWIDTH 576 0
DWIDTH 8 0
BBX 7 11 1 0
BITMAP
32
4C
00
38
44
04
7C
84
84
8C
74
ENDCHAR
STARTCHAR 00E4
ENCODING 228
SWIDTH 576 0
DWIDTH 8 0
BBX 6 10 1 0
BITMAP
24
00
38
44
04
7C
84
84
8C
74
ENDCHAR
STARTCHAR 00E5
ENCODING 229
SWIDTH 576 0
DWIDTH 8 0
BBX 6 13 1 0
BITMAP
38
44
44
38
00
38
44
04
7C
84
84
8C
74
ENDCHAR
STARTCHAR 00E6
ENCODING 230
SWIDTH 936 0
DWIDTH 13 0
BBX 11 8 1 0
BITMAP
3980
4640
0420
7FE0
8400
8400
8E20
71C0
ENDCHAR
STARTCHAR 00E7
ENCODING 231
SWIDTH 504 0
DWIDTH 7 0
BBX 6 11 1 -3
BITMAP
38
44
80
80
80
80
44
38
08
08
70
ENDCHAR
STARTCHAR 00E8
ENCODING 232
SWIDTH 576 0
DWIDTH 8 0
BBX 6 11 1 0
BITMAP
20
10
00
30
48
84
FC
80
80
44
38
ENDCHAR
STARTCHAR 00E9
ENCODING 233
SWIDTH 576 0
DWIDTH 8 0
BBX 6 11 1 0
BITMAP
08
10
00
30
48
84
FC
80
80
44
38
ENDCHAR
STARTCHAR 00EA
ENCODING 234
SWIDTH 576 0
DWIDTH 8 0
BBX 6 11 1 0
BITMAP
30
48
00
30
48
84
FC
80
80
44
38
ENDCHAR
STARTCHAR 00EB
ENCODING 235
SWIDTH 576 0
DWIDTH 8 0
BBX 6 10 1 0
BITMAP
48
00
30
48
84
FC
80
80
44
38
ENDCHAR
STARTCHAR 00EC
ENCODING 236
SWIDTH 216 0
DWIDTH 3 0
BBX 2 11 1 0
BITMAP
80
40
00
80
80
80
80
80
80
80
80
ENDCHAR
STARTCHAR 00ED
ENCODING 237
SWIDTH 216 0
DWIDTH 3 0
BBX 2 11 1 0
BITMAP
40
80
00
80
80
80
80
80
80
80
80
ENDCHAR
STARTCHAR 00EE
ENCODING 238
SWIDTH 216 0
DWIDTH 3 0
BBX 3 12 0 0
BITMAP
40
A0
A0
00
40
40
40
40
40
40
40
40
ENDCHAR
STARTCHAR 00EF
ENCODING 239
SWIDTH 216 0
DWIDTH 3 0
BBX 3 10 0 0
BITMAP
A0
00
40
40
40
40
40
40
40
40
ENDCHAR
STARTCHAR 00F0
ENCODING 240
SWIDTH 648 0
DWIDTH 9 0
BBX 7 10 1 0
BITMAP
34
18
24
04
7E
82
82
82
84
78
ENDCHAR
STARTCHAR 00F1
ENCODING 241
SWIDTH 648 0
DWIDTH 9 0
BBX 7 11 1 0
BITMAP
32
4C
00
BC
C2
82
82
82
82
82
82
ENDCHAR
STARTCHAR 00F2
ENCODING 242
SWIDTH 648 0
DWIDTH 9 0
BBX 7 11 1 0
BITMAP
10
08
00
38
44
82
82
82
82
44
38
ENDCHAR
STARTCHAR 00F3
ENCODING 243
SWIDTH 648 0
DWIDTH 9 0
BBX 7 11 1 0
BITMAP
08
10
00
38
44
82
82
82
82
44
38
ENDCHAR
STARTCHAR 00F4
ENCODING 244
SWIDTH 648 0
DWIDTH 9 0
BBX 7 11 1 0
BITMAP
18
24
00
38
44
82
82
82
82
44
38
ENDCHAR
STARTCHAR 00F5
ENCODING 245
SWIDTH 648 0
DWIDTH 9 0
BBX 7 11 1 0
BITMAP
32
4C
00
38
44
82
82
82
82
44
38
ENDCHAR
STARTCHAR 00F6
ENCODING 246
SWIDTH 648 0
DWIDTH 9 0
BBX 7 10 1 0
BITMAP
44
00
38
44
82
82
82
82
44
38
ENDCHAR
STARTCHAR 00F7
ENCODING 247
SWIDTH 792 0
DWIDTH 11 0
BBX 9 9 1 0
BITMAP
0800
0800
0000
0000
FF80
0000
0000
0800
0800
ENDCHAR
STARTCHAR 00F8
ENCODING 248
SWIDTH 648 0
DWIDTH 9 0
BBX 7 10 1 -1
BITMAP
02
3C
44
8A
92
92
A2
44
78
80
ENDCHAR
STARTCHAR 00F9
ENCODING 249
SWIDTH 648 0
DWIDTH 9 0
BBX 7 11 1 0
BITMAP
10
08
00
82
82
82
82
82
82
86
7A
ENDCHAR
STARTCHAR 00FA
ENCODING 250
SWIDTH 648 0
DWIDTH 9 0
BBX 7 11 1 0
BITMAP
08
10
00
82
82
82
82
82
82
86
7A
ENDCHAR
STARTCHAR 00FB
ENCODING 251
SWIDTH 648 0
DWIDTH 9 0
BBX 7 11 1 0
BITMAP
18
24
00
82
82
82
82
82
82
86
7A
ENDCHAR
STARTCHAR 00FC
ENCODING 252
SWIDTH 648 0
DWIDTH 9 0
BBX 7 10 1 0
BITMAP
44
00
82
82
82
82
82
82
86
7A
ENDCHAR
STARTCHAR 00FD
ENCODING 253
SWIDTH 576 0
DWIDTH 8 0
BBX 6 14 1 -3
BITMAP
08
10
00
84
84
48
48
48
30
30
30
20
20
40
ENDCHAR
STARTCHAR 00FE
ENCODING 254
SWIDTH 648 0
DWIDTH 9 0
BBX 7 14 1 -3
BITMAP
80
80
80
B8
C4
82
82
82
82
84
F8
80
80
80
ENDCHAR
STARTCHAR 00FF
ENCODING 255
SWIDTH 576 0
DWIDTH 8 0
BBX 6 13 1 -3
BITMAP
48
00
84
84
48
48
48
30
30
30
20
20
40
ENDCHAR
STARTCHAR 0100
ENCODING 256
SWIDTH 720 0
DWIDTH 10 0
BBX 10 12 0 0
BITMAP
1F00
0000
0C00
1200
1200
2100
2100
2100
7F80
4080
8040
8040
ENDCHAR
STARTCHAR 0101
ENCODING 257
SWIDTH 576 0
DWIDTH 8 0
BBX 6 10 1 0
BITMAP
7C
00
38
44
04
7C
84
84
8C
74
ENDCHAR
STARTCHAR 0102
ENCODING 258
SWIDTH 720 0
DWIDTH 10 0
BBX 10 14 0 0
BITMAP
1100
0E00
0000
0000
0C00
1200
1200
2100
2100
2100
7F80
4080
8040
8040
ENDCHAR
STARTCHAR 0103
ENCODING 259
SWIDTH 576 0
DWIDTH 8 0
BBX 6 11 1 0
BITMAP
44
38
00
38
44
04
7C
84
84
8C
74
ENDCHAR
STARTCHAR 0104
ENCODING 260
SWIDTH 720 0
DWIDTH 10 0
BBX 11 13 0 -3
BITMAP
0C00
1200
1200
2100
2100
2100
7F80
4080
8040
8040
0080
0080
0060
ENDCHAR
STARTCHAR 0105
ENCODING 261
SWIDTH 576 0
DWIDTH 8 0
BBX 8 11 1 -3
BITMAP
38
44
04
7C
84
84
8C
74
04
04
03
ENDCHAR
STARTCHAR 0106
ENCODING 262
SWIDTH 720 0
DWIDTH 10 0
BBX 8 14 1 0
BITMAP
04
08
00
00
1E
61
40
80
80
80
80
40
61
1E
ENDCHAR
STARTCHAR 0107
ENCODING 263
SWIDTH 504 0
DWIDTH 7 0
BBX 6 11 1 0
BITMAP
08
10
00
38
44
80
80
80
80
44
38
ENDCHAR
STARTCHAR 0108
ENCODING 264
SWIDTH 720 0
DWIDTH 10 0
BBX 8 14 1 0
BITMAP
0C
12
00
00
1E
61
40
80
80
80
80
40
61
1E
ENDCHAR
STARTCHAR 0109
ENCODING 265
SWIDTH 504 0
DWIDTH 7 0
BBX 6 11 1 0
BITMAP
30
48
00
38
44
80
80
80
80
44
38
ENDCHAR
STARTCHAR 010A
ENCODING 266
SWIDTH 720 0
DWIDTH 10 0
BBX 8 13 1 0
BITMAP
08
00
00
1E
61
40
80
80
80
80
40
61
1E
ENDCHAR
STARTCHAR 010B
ENCODING 267
SWIDTH 504 0
DWIDTH 7 0
BBX 6 10 1 0
BITMAP
10
00
38
44
80
80
80
80
44
38
ENDCHAR
STARTCHAR 010C
ENCODING 268
SWIDTH 720 0
DWIDTH 10 0
BBX 8 14 1 0
BITMAP
12
0C
00
00
1E
61
40
80
80
80
80
40
61
1E
ENDCHAR
STARTCHAR 010D
ENCODING 269
SWIDTH 504 0
DWIDTH 7 0
BBX 6 11 1 0
BITMAP
48
30
00
38
44
80
80
80
80
44
38
ENDCHAR
STARTCHAR 010E
ENCODING 270
SWIDTH 792 0
DWIDTH 11 0
BBX 9 14 1 0
BITMAP
2400
1800
0000
0000
FC00
8300
8100
8080
8080
8080
8080
8100
8300
FC00
ENDCHAR
STARTCHAR 010F
ENCODING 271
SWIDTH 648 0
DWIDTH 9 0
BBX 10 11 1 0
BITMAP
0240
0240
0200
3E00
4200
8200
8200
8200
8200
4600
3A00
ENDCHAR
STARTCHAR 0110
ENCODING 272
SWIDTH 792 0
DWIDTH 11 0
BBX 10 10 0 0
BITMAP
7E00
4180
4080
4040
F840
4040
4040
4080
4180
7E00
ENDCHAR
STARTCHAR 0111
ENCODING 273
SWIDTH 648 0
DWIDTH 9 0
BBX 8 11 1 0
BITMAP
02
0F
02
3E
42
82
82
82
82
46
3A
ENDCHAR
STARTCHAR 0112
ENCODING 274
SWIDTH 648 0
DWIDTH 9 0
BBX 7 12 1 0
BITMAP
7C
00
FE
80
80
80
FE
80
80
80
80
FE
ENDCHAR
STARTCHAR 0113
ENCODING 275
SWIDTH 576 0
DWIDTH 8 0
BBX 6 10 1 0
BITMAP
7C
00
30
48
84
FC
80
80
44
38
ENDCHAR
STARTCHAR 0114
ENCODING 276
SWIDTH 648 0
DWIDTH 9 0
BBX 7 14 1 0
BITMAP
44
38
00
00
FE
80
80
80
FE
80
80
80
80
FE
ENDCHAR
STARTCHAR 0115
ENCODING 277
SWIDTH 576 0
DWIDTH 8 0
BBX 6 11 1 0
BITMAP
44
38
00
30
48
84
FC
80
80
44
38
ENDCHAR
STARTCHAR 0116
ENCODING 278
SWIDTH 648 0
DWIDTH 9 0
BBX 7 13 1 0
BITMAP
10
00
00
FE
80
80
80
FE
80
80
80
80
FE
ENDCHAR
STARTCHAR 0117
ENCODING 279
SWIDTH 576 0
DWIDTH 8 0
BBX 6 10 1 0
BITMAP
10
00
30
48
84
FC
80
80
44
38
ENDCHAR
STARTCHAR 0118
ENCODING 280
SWIDTH 648 0
DWIDTH 9 0
BBX 7 13 1 -3
BITMAP
FE
80
80
80
FE
80
80
80
80
FE
08
08
06
ENDCHAR
STARTCHAR 0119
ENCODING 281
SWIDTH 576 0
DWIDTH 8 0
BBX 6 11 1 -3
BITMAP
30
48
84
FC
80
80
44
38
10
10
0C
ENDCHAR
STARTCHAR 011A
ENCODING 282
SWIDTH 648 0
DWIDTH 9 0
BBX 7 14 1 0
BITMAP
24
18
00
00
FE
80
80
80
FE
80
80
80
80
FE
ENDCHAR
STARTCHAR 011B
ENCODING 283
SWIDTH 576 0
DWIDTH 8 0
BBX 6 11 1 0
BITMAP
48
30
00
30
48
84
FC
80
80
44
38
ENDCHAR
STARTCHAR 011C
ENCODING 284
SWIDTH 792 0
DWIDTH 11 0
BBX 9 14 1 0
BITMAP
0C00
1200
0000
0000
1E00
6180
4080
8000
8000
8780
8080
4080
6080
1F00
ENDCHAR
STARTCHAR 011D
ENCODING 285
SWIDTH 648 0
DWIDTH 9 0
BBX 7 14 1 -3
BITMAP
18
24
00
3E
42
82
82
82
82
46
3A
02
44
38
ENDCHAR
STARTCHAR 011E
ENCODING 286
SWIDTH 792 0
DWIDTH 11 0
BBX 9 14 1 0
BITMAP
2200
1C00
0000
0000
1E00
6180
4080
8000
8000
8780
8080
4080
6080
1F00
ENDCHAR
STARTCHAR 011F
ENCODING 287
SWIDTH 648 0
DWIDTH 9 0
BBX 7 14 1 -3
BITMAP
22
1C
00
3E
42
82
82
82
82
46
3A
02
44
38
ENDCHAR
STARTCHAR 0120
ENCODING 288
SWIDTH 792 0
DWIDTH 11 0
BBX 9 13 1 0
BITMAP
0400
0000
0000
1E00
6180
4080
8000
8000
8780
8080
4080
6080
1F00
ENDCHAR
STARTCHAR 0121
ENCODING 289
SWIDTH 648 0
DWIDTH 9 0
BBX 7 13 1 -3
BITMAP
10
00
3E
42
82
82
82
82
46
3A
02
44
38
ENDCHAR
STARTCHAR 0122
ENCODING 290
SWIDTH 792 0
DWIDTH 11 0
BBX 9 13 1 -3
BITMAP
1E00
6180
4080
8000
8000
8780
8080
4080
6080
1F00
0400
0400
3800
ENDCHAR
STARTCHAR 0123
ENCODING 291
SWIDTH 648 0
DWIDTH 9 0
BBX 7 15 1 -3
BITMAP
08
10
10
00
3E
42
82
82
82
82
46
3A
02
44
38
ENDCHAR
STARTCHAR 0124
ENCODING 292
SWIDTH 720 0
DWIDTH 10 0
BBX 8 14 1 0
BITMAP
18
24
00
00
81
81
81
81
FF
81
81
81
81
81
ENDCHAR
STARTCHAR 0125
ENCODING 293
SWIDTH 648 0
DWIDTH 9 0
BBX 7 14 1 0
BITMAP
18
24
00
80
80
80
BC
C2
82
82
82
82
82
82
ENDCHAR
STARTCHAR 0126
ENCODING 294
SWIDTH 720 0
DWIDTH 10 0
BBX 10 10 0 0
BITMAP
4080
FFC0
4080
4080
7F80
4080
4080
4080
4080
4080
ENDCHAR
STARTCHAR 0127
ENCODING 295
SWIDTH 648 0
DWIDTH 9 0
BBX 8 11 0 0
BITMAP
40
F0
40
5E
61
41
41
41
41
41
41
ENDCHAR
STARTCHAR 0128
ENCODING 296
SWIDTH 360 0
DWIDTH 5 0
BBX 5 13 0 0
BITMAP
68
B0
00
70
20
20
20
20
20
20
20
20
70
ENDCHAR
STARTCHAR 0129
ENCODING 297
SWIDTH 216 0
DWIDTH 3 0
BBX 4 12 0 0
BITMAP
D0
B0
00
00
40
40
40
40
40
40
40
40
ENDCHAR
STARTCHAR 012A
ENCODING 298
SWIDTH 360 0
DWIDTH 5 0
BBX 5 12 0 0
BITMAP
F8
00
70
20
20
20
20
20
20
20
20
70
ENDCHAR
STARTCHAR 012B
ENCODING 299
SWIDTH 216 0
DWIDTH 3 0
BBX 3 10 0 0
BITMAP
E0
00
40
40
40
40
40
40
40
40
ENDCHAR
STARTCHAR 012C
ENCODING 300
SWIDTH 360 0
DWIDTH 5 0
BBX 5 14 0 0
BITMAP
88
88
70
00
70
20
20
20
20
20
20
20
20
70
ENDCHAR
STARTCHAR 012D
ENCODING 301
SWIDTH 216 0
DWIDTH 3 0
BBX 5 11 -1 0
BITMAP
88
70
00
20
20
20
20
20
20
20
20
ENDCHAR
STARTCHAR 012E
ENCODING 302
SWIDTH 360 0
DWIDTH 5 0
BBX 4 13 1 -3
BITMAP
E0
40
40
40
40
40
40
40
40
E0
40
40
30
ENDCHAR
STARTCHAR 012F
ENCODING 303
SWIDTH 216 0
DWIDTH 3 0
BBX 3 13 0 -3
BITMAP
40
00
40
40
40
40
40
40
40
40
80
80
60
ENDCHAR
STARTCHAR 0130
ENCODING 304
SWIDTH 360 0
DWIDTH 5 0
BBX 3 13 1 0
BITMAP
40
00
00
E0
40
40
40
40
40
40
40
40
E0
ENDCHAR
STARTCHAR 0131
ENCODING 305
SWIDTH 216 0
DWIDTH 3 0
BBX 1 8 1 0
BITMAP
80
80
80
80
80
80
80
80
ENDCHAR
STARTCHAR 0132
ENCODING 306
SWIDTH 864 0
DWIDTH 12 0
BBX 10 10 1 0
BITMAP
E1C0
4040
4040
4040
4040
4040
4040
4040
4040
E780
ENDCHAR
STARTCHAR 0133
ENCODING 307
SWIDTH 576 0
DWIDTH 8 0
BBX 6 13 1 -3
BITMAP
84
00
9C
84
84
84
84
84
84
84
04
04
38
ENDCHAR
STARTCHAR 0134
ENCODING 308
SWIDTH 432 0
DWIDTH 6 0
BBX 5 14 0 0
BITMAP
30
48
00
00
38
08
08
08
08
08
08
08
08
F0
ENDCHAR
STARTCHAR 0135
ENCODING 309
SWIDTH 360 0
DWIDTH 5 0
BBX 5 15 0 -3
BITMAP
20
50
98
00
70
10
10
10
10
10
10
10
10
10
E0
ENDCHAR
STARTCHAR 0136
ENCODING 310
SWIDTH 720 0
DWIDTH 10 0
BBX 8 13 1 -3
BITMAP
82
84
88
90
A0
D0
88
84
82
81
08
08
70
ENDCHAR
STARTCHAR 0137
ENCODING 311
SWIDTH 576 0
DWIDTH 8 0
BBX 6 14 1 -3
BITMAP
80
80
80
84
88
90
A0
E0
90
88
84
10
10
E0
ENDCHAR
STARTCHAR 0138
ENCODING 312
SWIDTH 576 0
DWIDTH 8 0
BBX 6 8 1 0
BITMAP
84
88
90
A0
E0
90
88
84
ENDCHAR
STARTCHAR 0139
ENCODING 313
SWIDTH 576 0
DWIDTH 8 0
BBX 7 14 1 0
BITMAP
40
80
00
00
80
80
80
80
80
80
80
80
80
FE
ENDCHAR
STARTCHAR 013A
ENCODING 314
SWIDTH 216 0
DWIDTH 3 0
BBX 2 14 1 0
BITMAP
40
80
00
80
80
80
80
80
80
80
80
80
80
80
ENDCHAR
STARTCHAR 013B
ENCODING 315
SWIDTH 576 0
DWIDTH 8 0
BBX 7 13 1 -3
BITMAP
80
80
80
80
80
80
80
80
80
FE
08
08
70
ENDCHAR
STARTCHAR 013C
ENCODING 316
SWIDTH 216 0
DWIDTH 3 0
BBX 3 14 0 -3
BITMAP
40
40
40
40
40
40
40
40
40
40
40
20
20
C0
ENDCHAR
STARTCHAR 013D
ENCODING 317
SWIDTH 576 0
DWIDTH 8 0
BBX 7 11 1 0
BITMAP
08
88
90
80
80
80
80
80
80
80
FE
ENDCHAR
STARTCHAR 013E
ENCODING 318
SWIDTH 288 0
DWIDTH 4 0
BBX 4 11 1 0
BITMAP
90
90
A0
80
80
80
80
80
80
80
80
ENDCHAR
STARTCHAR 013F
ENCODING 319
SWIDTH 576 0
DWIDTH 8 0
BBX 7 10 1 0
BITMAP
80
80
80
80
80
88
88
80
80
FE
ENDCHAR
STARTCHAR 0140
ENCODING 320
SWIDTH 432 0
DWIDTH 6 0
BBX 4 11 1 0
BITMAP
80
80
80
80
80
90
90
80
80
80
80
ENDCHAR
STARTCHAR 0141
ENCODING 321
SWIDTH 576 0
DWIDTH 8 0
BBX 8 10 0 0
BITMAP
40
40
48
50
60
C0
40
40
40
7F
ENDCHAR
STARTCHAR 0142
ENCODING 322
SWIDTH 216 0
DWIDTH 3 0
BBX 3 11 0 0
BITMAP
40
40
40
40
40
60
C0
40
40
40
40
ENDCHAR
STARTCHAR 0143
ENCODING 323
SWIDTH 720 0
DWIDTH 10 0
BBX 8 14 1 0
BITMAP
04
08
00
00
C1
C1
A1
91
91
89
89
85
83
83
ENDCHAR
STARTCHAR 0144
ENCODING 324
SWIDTH 648 0
DWIDTH 9 0
BBX 7 11 1 0
BITMAP
08
10
00
BC
C2
82
82
82
82
82
82
ENDCHAR
STARTCHAR 0145
ENCODING 325
SWIDTH 720 0
DWIDTH 10 0
BBX 8 13 1 -3
BITMAP
C1
C1
A1
91
91
89
89
85
83
83
08
08
70
ENDCHAR
STARTCHAR 0146
ENCODING 326
SWIDTH 648 0
DWIDTH 9 0
BBX 7 11 1 -3
BITMAP
BC
C2
82
82
82
82
82
82
08
08
70
ENDCHAR
STARTCHAR 0147
ENCODING 327
SWIDTH 720 0
DWIDTH 10 0
BBX 8 14 1 0
BITMAP
24
18
00
00
C1
C1
A1
91
91
89
89
85
83
83
ENDCHAR
STARTCHAR 0148
ENCODING 328
SWIDTH 648 0
DWIDTH 9 0
BBX 7 11 1 0
BITMAP
48
30
00
BC
C2
82
82
82
82
82
82
ENDCHAR
STARTCHAR 0149
ENCODING 329
SWIDTH 720 0
DWIDTH 10 0
BBX 10 11 -1 0
BITMAP
4000
4000
4000
9780
1840
1040
1040
1040
1040
1040
1040
ENDCHAR
STARTCHAR 014A
ENCODING 330
SWIDTH 720 0
DWIDTH 10 0
BBX 8 13 1 -3
BITMAP
C1
C1
A1
91
91
89
89
85
83
83
01
01
0E
ENDCHAR
STARTCHAR 014B
ENCODING 331
SWIDTH 648 0
DWIDTH 9 0
BBX 7 11 1 -3
BITMAP
BC
C2
82
82
82
82
82
82
02
02
1C
ENDCHAR
STARTCHAR 014C
ENCODING 332
SWIDTH 792 0
DWIDTH 11 0
BBX 9 13 1 0
BITMAP
3E00
0000
0000
1C00
6300
4100
8080
8080
8080
8080
4100
6300
1C00
ENDCHAR
STARTCHAR 014D
ENCODING 333
SWIDTH 648 0
DWIDTH 9 0
BBX 7 10 1 0
BITMAP
7C
00
38
44
82
82
82
82
44
38
ENDCHAR
STARTCHAR 014E
ENCODING 334
SWIDTH 792 0
DWIDTH 11 0
BBX 9 14 1 0
BITMAP
2200
1C00
0000
0000
1C00
6300
4100
8080
8080
8080
8080
4100
6300
1C00
ENDCHAR
STARTCHAR 014F
ENCODING 335
SWIDTH 648 0
DWIDTH 9 0
BBX 7 11 1 0
BITMAP
44
38
00
38
44
82
82
82
82
44
38
ENDCHAR
STARTCHAR 0150
ENCODING 336
SWIDTH 792 0
DWIDTH 11 0
BBX 9 14 1 0
BITMAP
0900
1200
0000
0000
1C00
6300
4100
8080
8080
8080
8080
4100
6300
1C00
ENDCHAR
STARTCHAR 0151
ENCODING 337
SWIDTH 648 0
DWIDTH 9 0
BBX 7 11 1 0
BITMAP
12
24
00
38
44
82
82
82
82
44
38
ENDCHAR
STARTCHAR 0152
ENCODING 338
SWIDTH 1080 0
DWIDTH 15 0
BBX 13 10 1 0
BITMAP
1FF8
6100
4100
8100
81F8
8100
8100
4100
6100
1FF8
ENDCHAR
STARTCHAR 0153
ENCODING 339
SWIDTH 1008 0
DWIDTH 14 0
BBX 12 8 1 0
BITMAP
31C0
4A20
8410
87F0
8400
8400
4E10
31E0
ENDCHAR
STARTCHAR 0154
ENCODING 340
SWIDTH 720 0
DWIDTH 10 0
BBX 8 14 1 0
BITMAP
10
20
00
00
F8
84
84
84
88
F0
88
84
82
81
ENDCHAR
STARTCHAR 0155
ENCODING 341
SWIDTH 432 0
DWIDTH 6 0
BBX 5 11 1 0
BITMAP
20
40
00
B8
C0
80
80
80
80
80
80
ENDCHAR
STARTCHAR 0156
ENCODING 342
SWIDTH 720 0
DWIDTH 10 0
BBX 8 13 1 -3
BITMAP
F8
84
84
84
88
F0
88
84
82
81
08
08
70
ENDCHAR
STARTCHAR 0157
ENCODING 343
SWIDTH 432 0
DWIDTH 6 0
BBX 6 11 0 -3
BITMAP
5C
60
40
40
40
40
40
40
20
20
C0
ENDCHAR
STARTCHAR 0158
ENCODING 344
SWIDTH 720 0
DWIDTH 10 0
BBX 8 14 1 0
BITMAP
48
30
00
00
F8
84
84
84
88
F0
88
84
82
81
ENDCHAR
STARTCHAR 0159
ENCODING 345
SWIDTH 432 0
DWIDTH 6 0
BBX 5 11 1 0
BITMAP
90
60
00
B8
C0
80
80
80
80
80
80
ENDCHAR
STARTCHAR 015A
ENCODING 346
SWIDTH 720 0
DWIDTH 10 0
BBX 8 14 1 0
BITMAP
08
10
00
00
3E
41
80
80
70
0E
01
81
42
3C
ENDCHAR
STARTCHAR 015B
ENCODING 347
SWIDTH 576 0
DWIDTH 8 0
BBX 6 11 1 0
BITMAP
10
20
00
78
84
80
60
18
04
84
78
ENDCHAR
STARTCHAR 015C
ENCODING 348
SWIDTH 720 0
DWIDTH 10 0
BBX 8 14 1 0
BITMAP
18
24
00
00
3E
41
80
80
70
0E
01
81
42
3C
ENDCHAR
STARTCHAR 015D
ENCODING 349
SWIDTH 576 0
DWIDTH 8 0
BBX 6 11 1 0
BITMAP
30
48
00
78
84
80
60
18
04
84
78
ENDCHAR
STARTCHAR 015E
ENCODING 350
SWIDTH 720 0
DWIDTH 10 0
BBX 8 13 1 -3
BITMAP
3E
41
80
80
70
0E
01
81
42
3C
04
04
38
ENDCHAR
STARTCHAR 015F
ENCODING 351
SWIDTH 576 0
DWIDTH 8 0
BBX 6 11 1 -3
BITMAP
78
84
80
60
18
04
84
78
10
10
E0
ENDCHAR
STARTCHAR 0160
ENCODING 352
SWIDTH 720 0
DWIDTH 10 0
BBX 8 14 1 0
BITMAP
24
18
00
00
3E
41
80
80
70
0E
01
81
42
3C
ENDCHAR
STARTCHAR 0161
ENCODING 353
SWIDTH 576 0
DWIDTH 8 0
BBX 6 11 1 0
BITMAP
48
30
00
78
84
80
60
18
04
84
78
ENDCHAR
STARTCHAR 0162
ENCODING 354
SWIDTH 648 0
DWIDTH 9 0
BBX 9 13 0 -3
BITMAP
FF80
0800
0800
0800
0800
0800
0800
0800
0800
0800
0800
0800
7000
ENDCHAR
STARTCHAR 0163
ENCODING 355
SWIDTH 432 0
DWIDTH 6 0
BBX 6 13 0 -3
BITMAP
40
40
FC
40
40
40
40
40
40
3C
04
04
38
ENDCHAR
STARTCHAR 0164
ENCODING 356
SWIDTH 648 0
DWIDTH 9 0
BBX 9 14 0 0
BITMAP
1200
0C00
0000
0000
FF80
0800
0800
0800
0800
0800
0800
0800
0800
0800
ENDCHAR
STARTCHAR 0165
ENCODING 357
SWIDTH 432 0
DWIDTH 6 0
BBX 6 12 0 0
BITMAP
08
08
50
40
FC
40
40
40
40
40
40
3C
ENDCHAR
STARTCHAR 0166
ENCODING 358
SWIDTH 648 0
DWIDTH 9 0
BBX 9 10 0 0
BITMAP
FF80
0800
0800
0800
3E00
0800
0800
0800
0800
0800
ENDCHAR
STARTCHAR 0167
ENCODING 359
SWIDTH 432 0
DWIDTH 6 0
BBX 5 10 1 0
BITMAP
40
40
F8
40
40
F0
40
40
40
38
ENDCHAR
STARTCHAR 0168
ENCODING 360
SWIDTH 720 0
DWIDTH 10 0
BBX 8 14 1 0
BITMAP
32
4C
00
00
81
81
81
81
81
81
81
81
42
3C
ENDCHAR
STARTCHAR 0169
ENCODING 361
SWIDTH 648 0
DWIDTH 9 0
BBX 7 11 1 0
BITMAP
32
4C
00
82
82
82
82
82
82
86
7A
ENDCHAR
STARTCHAR 016A
ENCODING 362
SWIDTH 720 0
DWIDTH 10 0
BBX 8 13 1 0
BITMAP
3E
00
00
81
81
81
81
81
81
81
81
42
3C
ENDCHAR
STARTCHAR 016B
ENCODING 363
SWIDTH 648 0
DWIDTH 9 0
BBX 7 10 1 0
BITMAP
7C
00
82
82
82
82
82
82
86
7A
ENDCHAR
STARTCHAR 016C
ENCODING 364
SWIDTH 720 0
DWIDTH 10 0
BBX 8 14 1 0
BITMAP
22
1C
00
00
81
81
81
81
81
81
81
81
42
3C
ENDCHAR
STARTCHAR 016D
ENCODING 365
SWIDTH 648 0
DWIDTH 9 0
BBX 7 11 1 0
BITMAP
44
38
00
82
82
82
82
82
82
86
7A
ENDCHAR
STARTCHAR 016E
ENCODING 366
SWIDTH 720 0
DWIDTH 10 0
BBX 8 13 1 0
BITMAP
1C
22
22
9D
81
81
81
81
81
81
81
42
3C
ENDCHAR
STARTCHAR 016F
ENCODING 367
SWIDTH 648 0
DWIDTH 9 0
BBX 7 13 1 0
BITMAP
38
44
44
38
00
82
82
82
82
82
82
86
7A
ENDCHAR
STARTCHAR 0170
ENCODING 368
SWIDTH 720 0
DWIDTH 10 0
BBX 8 14 1 0
BITMAP
12
24
00
00
81
81
81
81
81
81
81
81
42
3C
ENDCHAR
STARTCHAR 0171
ENCODING 369
SWIDTH 648 0
DWIDTH 9 0
BBX 7 11 1 0
BITMAP
12
24
00
82
82
82
82
82
82
86
7A
ENDCHAR
STARTCHAR 0172
ENCODING 370
SWIDTH 720 0
DWIDTH 10 0
BBX 8 13 1 -3
BITMAP
81
81
81
81
81
81
81
81
42
3C
08
08
06
ENDCHAR
STARTCHAR 0173
ENCODING 371
SWIDTH 648 0
DWIDTH 9 0
BBX 8 11 1 -3
BITMAP
82
82
82
82
82
82
86
7A
04
04
03
ENDCHAR
STARTCHAR 0174
ENCODING 372
SWIDTH 1080 0
DWIDTH 15 0
BBX 13 14 1 0
BITMAP
0600
0900
0000
0000
8208
8208
4510
4510
4510
28A0
28A0
28A0
1040
1040
ENDCHAR
STARTCHAR 0175
ENCODING 373
SWIDTH 792 0
DWIDTH 11 0
BBX 9 11 1 0
BITMAP
0C00
1200
0000
8880
8880
5500
5500
5500
5500
2200
2200
ENDCHAR
STARTCHAR 0176
ENCODING 374
SWIDTH 648 0
DWIDTH 9 0
BBX 9 14 0 0
BITMAP
0C00
1200
0000
0000
8080
4100
2200
2200
1400
0800
0800
0800
0800
0800
ENDCHAR
STARTCHAR 0177
ENCODING 375
SWIDTH 576 0
DWIDTH 8 0
BBX 6 14 1 -3
BITMAP
30
48
00
84
84
48
48
48
30
30
30
20
20
40
ENDCHAR
STARTCHAR 0178
ENCODING 376
SWIDTH 648 0
DWIDTH 9 0
BBX 9 13 0 0
BITMAP
2200
0000
0000
8080
4100
2200
2200
1400
0800
0800
0800
0800
0800
ENDCHAR
STARTCHAR 0179
ENCODING 377
SWIDTH 720 0
DWIDTH 10 0
BBX 8 14 1 0
BITMAP
08
10
00
00
FF
01
02
04
08
10
20
40
80
FF
ENDCHAR
STARTCHAR 017A
ENCODING 378
SWIDTH 576 0
DWIDTH 8 0
BBX 6 11 1 0
BITMAP
10
20
00
FC
04
08
10
20
40
80
FC
ENDCHAR
STARTCHAR 017B
ENCODING 379
SWIDTH 720 0
DWIDTH 10 0
BBX 8 13 1 0
BITMAP
08
00
00
FF
01
02
04
08
10
20
40
80
FF
ENDCHAR
STARTCHAR 017C
ENCODING 380
SWIDTH 576 0
DWIDTH 8 0
BBX 6 10 1 0
BITMAP
10
00
FC
04
08
10
20
40
80
FC
ENDCHAR
STARTCHAR 017D
ENCODING 381
SWIDTH 720 0
DWIDTH 10 0
BBX 8 14 1 0
BITMAP
24
18
00
00
FF
01
02
04
08
10
20
40
80
FF
ENDCHAR
STARTCHAR 017E
ENCODING 382
SWIDTH 576 0
DWIDTH 8 0
BBX 6 11 1 0
BITMAP
48
30
00
FC
04
08
10
20
40
80
FC
ENDCHAR
STARTCHAR 017F
ENCODING 383
SWIDTH 288 0
DWIDTH 4 0
BBX 4 11 1 0
BITMAP
70
80
80
80
80
80
80
80
80
80
80
ENDCHAR
STARTCHAR 0192
ENCODING 402
SWIDTH 648 0
DWIDTH 9 0
BBX 9 11 0 -1
BITMAP
0380
0400
0400
0800
3F00
0800
0800
1000
1000
1000
E000
ENDCHAR
STARTCHAR 01A0
ENCODING 416
SWIDTH 792 0
DWIDTH 11 0
BBX 10 10 1 0
BITMAP
1C40
6340
4140
8080
8080
8080
8080
4100
6300
1C00
ENDCHAR
STARTCHAR 01A1
ENCODING 417
SWIDTH 648 0
DWIDTH 9 0
BBX 8 10 1 0
BITMAP
01
01
3E
44
82
82
82
82
44
38
ENDCHAR
STARTCHAR 01AF
ENCODING 431
SWIDTH 792 0
DWIDTH 11 0
BBX 10 12 1 0
BITMAP
0040
0040
8180
8100
8100
8100
8100
8100
8100
8100
4200
3C00
ENDCHAR
STARTCHAR 01B0
ENCODING 432
SWIDTH 720 0
DWIDTH 10 0
BBX 9 10 1 0
BITMAP
0080
0080
8300
8200
8200
8200
8200
8200
8600
7A00
ENDCHAR
STARTCHAR 01FA
ENCODING 506
SWIDTH 720 0
DWIDTH 10 0
BBX 10 14 0 0
BITMAP
0200
0400
0C00
1200
1200
0C00
1200
1200
2100
2100
7F80
4080
8040
8040
ENDCHAR
STARTCHAR 01FB
ENCODING 507
SWIDTH 576 0
DWIDTH 8 0
BBX 6 13 1 0
BITMAP
04
08
18
24
24
38
44
04
7C
84
84
8C
74
ENDCHAR
STARTCHAR 01FC
ENCODING 508
SWIDTH 1008 0
DWIDTH 14 0
BBX 13 14 0 0
BITMAP
0080
0100
0000
0000
0FF8
1900
1100
1100
21F8
3F00
4100
4100
4100
81F8
ENDCHAR
STARTCHAR 01FD
ENCODING 509
SWIDTH 936 0
DWIDTH 13 0
BBX 11 11 1 0
BITMAP
0200
0400
0000
3980
4640
0420
7FE0
8400
8400
8E20
71C0
ENDCHAR
STARTCHAR 01FE
ENCODING 510
SWIDTH 792 0
DWIDTH 11 0
BBX 9 15 1 -1
BITMAP
0400
0800
0000
0080
1D00
6300
4300
8480
8880
8880
9080
6100
6300
5C00
8000
ENDCHAR
STARTCHAR 01FF
ENCODING 511
SWIDTH 648 0
DWIDTH 9 0
BBX 7 12 1 -1
BITMAP
08
10
02
3C
44
8A
92
92
A2
44
78
80
ENDCHAR
STARTCHAR 02C6
ENCODING 710
SWIDTH 648 0
DWIDTH 9 0
BBX 4 2 2 9
BITMAP
60
90
ENDCHAR
STARTCHAR 02C7
ENCODING 711
SWIDTH 648 0
DWIDTH 9 0
BBX 4 2 2 9
BITMAP
90
60
ENDCHAR
STARTCHAR 02C9
ENCODING 713
SWIDTH 648 0
DWIDTH 9 0
BBX 5 1 2 9
BITMAP
F8
ENDCHAR
STARTCHAR 02D8
ENCODING 728
SWIDTH 648 0
DWIDTH 9 0
BBX 5 2 2 9
BITMAP
88
70
ENDCHAR
STARTCHAR 02D9
ENCODING 729
SWIDTH 648 0
DWIDTH 9 0
BBX 1 1 4 9
BITMAP
80
ENDCHAR
STARTCHAR 02DA
ENCODING 730
SWIDTH 648 0
DWIDTH 9 0
BBX 5 4 2 9
BITMAP
70
88
88
70
ENDCHAR
STARTCHAR 02DB
ENCODING 731
SWIDTH 648 0
DWIDTH 9 0
BBX 3 3 3 -3
BITMAP
80
80
60
ENDCHAR
STARTCHAR 02DC
ENCODING 732
SWIDTH 648 0
DWIDTH 9 0
BBX 6 2 2 9
BITMAP
64
98
ENDCHAR
STARTCHAR 02DD
ENCODING 733
SWIDTH 648 0
DWIDTH 9 0
BBX 5 2 2 9
BITMAP
48
90
ENDCHAR
STARTCHAR 0300
ENCODING 768
SWIDTH 0 0
DWIDTH 0 0
BBX 2 2 3 9
BITMAP
80
40
ENDCHAR
STARTCHAR 0301
ENCODING 769
SWIDTH 0 0
DWIDTH 0 0
BBX 2 2 4 9
BITMAP
40
80
ENDCHAR
STARTCHAR 0303
ENCODING 771
SWIDTH 0 0
DWIDTH 0 0
BBX 6 2 2 9
BITMAP
64
98
ENDCHAR
STARTCHAR 0309
ENCODING 777
SWIDTH 0 0
DWIDTH 0 0
BBX 2 3 4 9
BITMAP
C0
40
80
ENDCHAR
STARTCHAR 0323
ENCODING 803
SWIDTH 0 0
DWIDTH 0 0
BBX 1 1 4 -2
BITMAP
80
ENDCHAR
STARTCHAR 037E
ENCODING 894
SWIDTH 432 0
DWIDTH 6 0
BBX 2 10 1 -2
BITMAP
40
40
00
00
00
00
40
40
40
80
ENDCHAR
STARTCHAR 0384
ENCODING 900
SWIDTH 648 0
DWIDTH 9 0
BBX 1 3 4 9
BITMAP
80
80
80
ENDCHAR
STARTCHAR 0385
ENCODING 901
SWIDTH 648 0
DWIDTH 9 0
BBX 5 3 2 9
BITMAP
20
20
A8
ENDCHAR
STARTCHAR 0386
ENCODING 902
SWIDTH 720 0
DWIDTH 10 0
BBX 10 10 0 0
BITMAP
8C00
9200
9200
2100
2100
2100
7F80
4080
8040
8040
ENDCHAR
STARTCHAR 0387
ENCODING 903
SWIDTH 432 0
DWIDTH 6 0
BBX 1 2 2 6
BITMAP
80
80
ENDCHAR
STARTCHAR 0388
ENCODING 904
SWIDTH 792 0
DWIDTH 11 0
BBX 10 10 0 0
BITMAP
9FC0
9000
9000
1000
1FC0
1000
1000
1000
1000
1FC0
ENDCHAR
STARTCHAR 0389
ENCODING 905
SWIDTH 864 0
DWIDTH 12 0
BBX 11 10 0 0
BITMAP
9020
9020
9020
1020
1FE0
1020
1020
1020
1020
1020
ENDCHAR
STARTCHAR 038A
ENCODING 906
SWIDTH 504 0
DWIDTH 7 0
BBX 6 10 0 0
BITMAP
9C
88
88
08
08
08
08
08
08
1C
ENDCHAR
STARTCHAR 038C
ENCODING 908
SWIDTH 864 0
DWIDTH 12 0
BBX 11 10 0 0
BITMAP
8700
98C0
9040
2020
2020
2020
2020
1040
18C0
0700
ENDCHAR
STARTCHAR 038E
ENCODING 910
SWIDTH 792 0
DWIDTH 11 0
BBX 11 10 0 0
BITMAP
A020
9040
8880
0880
0500
0200
0200
0200
0200
0200
ENDCHAR
STARTCHAR 038F
ENCODING 911
SWIDTH 864 0
DWIDTH 12 0
BBX 11 10 0 0
BITMAP
8F80
9040
A020
2020
2020
2020
1040
0880
0880
38E0
ENDCHAR
STARTCHAR 0390
ENCODING 912
SWIDTH 216 0
DWIDTH 3 0
BBX 5 12 -1 0
BITMAP
20
20
A8
00
20
20
20
20
20
20
20
20
ENDCHAR
STARTCHAR 0391
ENCODING 913
SWIDTH 720 0
DWIDTH 10 0
BBX 10 10 0 0
BITMAP
0C00
1200
1200
2100
2100
2100
7F80
4080
8040
8040
ENDCHAR
STARTCHAR 0392
ENCODING 914
SWIDTH 720 0
DWIDTH 10 0
BBX 8 10 1 0
BITMAP
FC
82
82
82
FC
82
81
81
82
FC
ENDCHAR
STARTCHAR 0393
ENCODING 915
SWIDTH 576 0
DWIDTH 8 0
BBX 7 10 1 0
BITMAP
FE
80
80
80
80
80
80
80
80
80
ENDCHAR
STARTCHAR 0394
ENCODING 916
SWIDTH 720 0
DWIDTH 10 0
BBX 10 10 0 0
BITMAP
0C00
0C00
1200
1200
2100
2100
2100
4080
4080
FFC0
ENDCHAR
STARTCHAR 0395
ENCODING 917
SWIDTH 648 0
DWIDTH 9 0
BBX 7 10 1 0
BITMAP
FE
80
80
80
FE
80
80
80
80
FE
ENDCHAR
STARTCHAR 0396
ENCODING 918
SWIDTH 720 0
DWIDTH 10 0
BBX 8 10 1 0
BITMAP
FF
01
02
04
08
10
20
40
80
FF
ENDCHAR
STARTCHAR 0397
ENCODING 919
SWIDTH 720 0
DWIDTH 10 0
BBX 8 10 1 0
BITMAP
81
81
81
81
FF
81
81
81
81
81
ENDCHAR
STARTCHAR 0398
ENCODING 920
SWIDTH 792 0
DWIDTH 11 0
BBX 9 10 1 0
BITMAP
1C00
6300
4100
8080
BE80
8080
8080
4100
6300
1C00
ENDCHAR
STARTCHAR 0399
ENCODING 921
SWIDTH 360 0
DWIDTH 5 0
BBX 3 10 1 0
BITMAP
E0
40
40
40
40
40
40
40
40
E0
ENDCHAR
STARTCHAR 039A
ENCODING 922
SWIDTH 720 0
DWIDTH 10 0
BBX 8 10 1 0
BITMAP
82
84
88
90
A0
D0
88
84
82
81
ENDCHAR
STARTCHAR 039B
ENCODING 923
SWIDTH 720 0
DWIDTH 10 0
BBX 10 10 0 0
BITMAP
0C00
1200
1200
1300
2100
2100
4080
4080
8040
8040
ENDCHAR
STARTCHAR 039C
ENCODING 924
SWIDTH 792 0
DWIDTH 11 0
BBX 9 10 1 0
BITMAP
C180
C180
A280
A280
9480
9480
8880
8880
8080
8080
ENDCHAR
STARTCHAR 039D
ENCODING 925
SWIDTH 720 0
DWIDTH 10 0
BBX 8 10 1 0
BITMAP
C1
C1
A1
91
91
89
89
85
83
83
ENDCHAR
STARTCHAR 039E
ENCODING 926
SWIDTH 648 0
DWIDTH 9 0
BBX 7 10 1 0
BITMAP
FE
00
00
00
7C
00
00
00
00
FE
ENDCHAR
STARTCHAR 039F
ENCODING 927
SWIDTH 792 0
DWIDTH 11 0
BBX 9 10 1 0
BITMAP
1C00
6300
4100
8080
8080
8080
8080
4100
6300
1C00
ENDCHAR
STARTCHAR 03A0
ENCODING 928
SWIDTH 720 0
DWIDTH 10 0
BBX 8 10 1 0
BITMAP
FF
81
81
81
81
81
81
81
81
81
ENDCHAR
STARTCHAR 03A1
ENCODING 929
SWIDTH 576 0
DWIDTH 8 0
BBX 7 10 1 0
BITMAP
F8
84
82
82
84
F8
80
80
80
80
ENDCHAR
STARTCHAR 03A3
ENCODING 931
SWIDTH 648 0
DWIDTH 9 0
BBX 7 10 1 0
BITMAP
FE
40
20
10
08
10
20
40
80
FE
ENDCHAR
STARTCHAR 03A4
ENCODING 932
SWIDTH 648 0
DWIDTH 9 0
BBX 9 10 0 0
BITMAP
FF80
0800
0800
0800
0800
0800
0800
0800
0800
0800
ENDCHAR
STARTCHAR 03A5
ENCODING 933
SWIDTH 648 0
DWIDTH 9 0
BBX 9 10 0 0
BITMAP
8080
4100
2200
2200
1400
0800
0800
0800
0800
0800
ENDCHAR
STARTCHAR 03A6
ENCODING 934
SWIDTH 792 0
DWIDTH 11 0
BBX 9 10 1 0
BITMAP
0800
3E00
4900
8880
8880
8880
8880
4900
3E00
0800
ENDCHAR
STARTCHAR 03A7
ENCODING 935
SWIDTH 720 0
DWIDTH 10 0
BBX 8 10 1 0
BITMAP
81
42
24
24
18
18
24
24
42
81
ENDCHAR
STARTCHAR 03A8
ENCODING 936
SWIDTH 792 0
DWIDTH 11 0
BBX 9 10 1 0
BITMAP
8880
8880
8880
8880
8880
8880
4900
3E00
0800
0800
ENDCHAR
STARTCHAR 03A9
ENCODING 937
SWIDTH 792 0
DWIDTH 11 0
BBX 9 10 1 0
BITMAP
3E00
4100
8080
8080
8080
8080
4100
2200
2200
E380
ENDCHAR
STARTCHAR 03AA
ENCODING 938
SWIDTH 360 0
DWIDTH 5 0
BBX 5 13 0 0
BITMAP
88
00
00
70
20
20
20
20
20
20
20
20
70
ENDCHAR
STARTCHAR 03AB
ENCODING 939
SWIDTH 648 0
DWIDTH 9 0
BBX 9 13 0 0
BITMAP
2200
0000
0000
8080
4100
2200
2200
1400
0800
0800
0800
0800
0800
ENDCHAR
STARTCHAR 03AC
ENCODING 940
SWIDTH 648 0
DWIDTH 9 0
BBX 7 12 1 0
BITMAP
10
10
10
00
3A
46
82
82
82
82
46
3A
ENDCHAR
STARTCHAR 03AD
ENCODING 941
SWIDTH 504 0
DWIDTH 7 0
BBX 5 12 1 0
BITMAP
20
20
20
00
70
88
80
70
80
80
88
70
ENDCHAR
STARTCHAR 03AE
ENCODING 942
SWIDTH 648 0
DWIDTH 9 0
BBX 7 15 1 -3
BITMAP
10
10
10
00
BC
C2
82
82
82
82
82
82
02
02
02
ENDCHAR
STARTCHAR 03AF
ENCODING 943
SWIDTH 216 0
DWIDTH 3 0
BBX 1 12 1 0
BITMAP
80
80
80
00
80
80
80
80
80
80
80
80
ENDCHAR
STARTCHAR 03B0
ENCODING 944
SWIDTH 648 0
DWIDTH 9 0
BBX 7 12 1 0
BITMAP
10
10
54
00
82
82
82
82
82
82
82
7C
ENDCHAR
STARTCHAR 03B1
ENCODING 945
SWIDTH 648 0
DWIDTH 9 0
BBX 7 8 1 0
BITMAP
3A
46
82
82
82
82
46
3A
ENDCHAR
STARTCHAR 03B2
ENCODING 946
SWIDTH 648 0
DWIDTH 9 0
BBX 7 14 1 -3
BITMAP
78
84
84
84
B8
84
82
82
82
C4
B8
80
80
80
ENDCHAR
STARTCHAR 03B3
ENCODING 947
SWIDTH 648 0
DWIDTH 9 0
BBX 7 11 1 -3
BITMAP
82
82
44
44
28
28
10
10
10
10
10
ENDCHAR
STARTCHAR 03B4
ENCODING 948
SWIDTH 648 0
DWIDTH 9 0
BBX 7 11 1 0
BITMAP
7C
20
10
38
44
82
82
82
82
44
38
ENDCHAR
STARTCHAR 03B5
ENCODING 949
SWIDTH 504 0
DWIDTH 7 0
BBX 5 8 1 0
BITMAP
70
88
80
70
80
80
88
70
ENDCHAR
STARTCHAR 03B6
ENCODING 950
SWIDTH 432 0
DWIDTH 6 0
BBX 5 14 1 -3
BITMAP
78
10
20
40
40
80
80
80
80
80
78
08
08
10
ENDCHAR
STARTCHAR 03B7
ENCODING 951
SWIDTH 648 0
DWIDTH 9 0
BBX 7 11 1 -3
BITMAP
BC
C2
82
82
82
82
82
82
02
02
02
ENDCHAR
STARTCHAR 03B8
ENCODING 952
SWIDTH 648 0
DWIDTH 9 0
BBX 7 11 1 0
BITMAP
38
44
82
82
82
FE
82
82
82
44
38
ENDCHAR
STARTCHAR 03B9
ENCODING 953
SWIDTH 216 0
DWIDTH 3 0
BBX 1 8 1 0
BITMAP
80
80
80
80
80
80
80
80
ENDCHAR
STARTCHAR 03BA
ENCODING 954
SWIDTH 576 0
DWIDTH 8 0
BBX 6 8 1 0
BITMAP
8C
90
90
A0
E0
90
88
84
ENDCHAR
STARTCHAR 03BB
ENCODING 955
SWIDTH 576 0
DWIDTH 8 0
BBX 6 11 1 0
BITMAP
20
20
20
30
30
30
48
48
48
84
84
ENDCHAR
STARTCHAR 03BC
ENCODING 956
SWIDTH 648 0
DWIDTH 9 0
BBX 7 11 1 -3
BITMAP
82
82
82
82
82
82
C6
BA
80
80
80
ENDCHAR
STARTCHAR 03BD
ENCODING 957
SWIDTH 576 0
DWIDTH 8 0
BBX 6 8 1 0
BITMAP
84
84
48
48
48
30
30
30
ENDCHAR
STARTCHAR 03BE
ENCODING 958
SWIDTH 504 0
DWIDTH 7 0
BBX 6 14 1 -3
BITMAP
F8
20
40
40
40
38
40
80
80
80
78
04
04
08
ENDCHAR
STARTCHAR 03BF
ENCODING 959
SWIDTH 648 0
DWIDTH 9 0
BBX 7 8 1 0
BITMAP
38
44
82
82
82
82
44
38
ENDCHAR
STARTCHAR 03C0
ENCODING 960
SWIDTH 648 0
DWIDTH 9 0
BBX 7 8 1 0
BITMAP
FE
82
82
82
82
82
82
82
ENDCHAR
STARTCHAR 03C1
ENCODING 961
SWIDTH 648 0
DWIDTH 9 0
BBX 7 11 1 -3
BITMAP
38
44
82
82
82
82
84
F8
80
80
80
ENDCHAR
STARTCHAR 03C2
ENCODING 962
SWIDTH 504 0
DWIDTH 7 0
BBX 6 11 1 -3
BITMAP
38
44
80
80
80
80
40
38
04
04
08
ENDCHAR
STARTCHAR 03C3
ENCODING 963
SWIDTH 648 0
DWIDTH 9 0
BBX 8 8 1 0
BITMAP
3F
44
82
82
82
82
44
38
ENDCHAR
STARTCHAR 03C4
ENCODING 964
SWIDTH 504 0
DWIDTH 7 0
BBX 7 8 0 0
BITMAP
FE
10
10
10
10
10
10
10
ENDCHAR
STARTCHAR 03C5
ENCODING 965
SWIDTH 648 0
DWIDTH 9 0
BBX 7 8 1 0
BITMAP
82
82
82
82
82
82
82
7C
ENDCHAR
STARTCHAR 03C6
ENCODING 966
SWIDTH 792 0
DWIDTH 11 0
BBX 9 11 1 -3
BITMAP
4E00
8900
8880
8880
8880
8880
4900
3E00
0800
0800
0800
ENDCHAR
STARTCHAR 03C7
ENCODING 967
SWIDTH 576 0
DWIDTH 8 0
BBX 6 11 1 -3
BITMAP
84
84
48
58
30
30
30
58
48
84
84
ENDCHAR
STARTCHAR 03C8
ENCODING 968
SWIDTH 792 0
DWIDTH 11 0
BBX 9 11 1 -3
BITMAP
8880
8880
8880
8880
8880
8880
4900
3E00
0800
0800
0800
ENDCHAR
STARTCHAR 03C9
ENCODING 969
SWIDTH 792 0
DWIDTH 11 0
BBX 9 8 1 0
BITMAP
4100
8080
8880
8880
8880
8880
8880
7700
ENDCHAR
STARTCHAR 03CA
ENCODING 970
SWIDTH 216 0
DWIDTH 3 0
BBX 3 10 0 0
BITMAP
A0
00
40
40
40
40
40
40
40
40
ENDCHAR
STARTCHAR 03CB
ENCODING 971
SWIDTH 648 0
DWIDTH 9 0
BBX 7 10 1 0
BITMAP
44
00
82
82
82
82
82
82
82
7C
ENDCHAR
STARTCHAR 03CC
ENCODING 972
SWIDTH 648 0
DWIDTH 9 0
BBX 7 12 1 0
BITMAP
10
10
10
00
38
44
82
82
82
82
44
38
ENDCHAR
STARTCHAR 03CD
ENCODING 973
SWIDTH 648 0
DWIDTH 9 0
BBX 7 12 1 0
BITMAP
10
10
10
00
82
82
82
82
82
82
82
7C
ENDCHAR
STARTCHAR 03CE
ENCODING 974
SWIDTH 792 0
DWIDTH 11 0
BBX 9 12 1 0
BITMAP
0800
0800
0800
0000
4100
8080
8880
8880
8880
8880
8880
7700
ENDCHAR
STARTCHAR 0401
ENCODING 1025
SWIDTH 648 0
DWIDTH 9 0
BBX 7 13 1 0
BITMAP
24
00
00
FE
80
80
80
FE
80
80
80
80
FE
ENDCHAR
STARTCHAR 0402
ENCODING 1026
SWIDTH 792 0
DWIDTH 11 0
BBX 10 10 0 0
BITMAP
FE00
1000
1000
1000
1F80
1040
1040
1040
1040
1380
ENDCHAR
STARTCHAR 0403
ENCODING 1027
SWIDTH 576 0
DWIDTH 8 0
BBX 7 13 1 0
BITMAP
08
10
00
FE
80
80
80
80
80
80
80
80
80
ENDCHAR
STARTCHAR 0404
ENCODING 1028
SWIDTH 720 0
DWIDTH 10 0
BBX 8 10 1 0
BITMAP
1E
61
40
80
FE
80
80
40
61
1E
ENDCHAR
STARTCHAR 0405
ENCODING 1029
SWIDTH 720 0
DWIDTH 10 0
BBX 8 10 1 0
BITMAP
3E
41
80
80
70
0E
01
81
42
3C
ENDCHAR
STARTCHAR 0406
ENCODING 1030
SWIDTH 360 0
DWIDTH 5 0
BBX 3 10 1 0
BITMAP
E0
40
40
40
40
40
40
40
40
E0
ENDCHAR
STARTCHAR 0407
ENCODING 1031
SWIDTH 360 0
DWIDTH 5 0
BBX 5 13 0 0
BITMAP
88
00
00
70
20
20
20
20
20
20
20
20
70
ENDCHAR
STARTCHAR 0408
ENCODING 1032
SWIDTH 432 0
DWIDTH 6 0
BBX 5 10 0 0
BITMAP
38
08
08
08
08
08
08
08
08
F0
ENDCHAR
STARTCHAR 0409
ENCODING 1033
SWIDTH 1152 0
DWIDTH 16 0
BBX 15 10 0 0
BITMAP
3F00
2100
2100
2100
21F8
2104
2102
2102
2104
C1F8
ENDCHAR
STARTCHAR 040A
ENCODING 1034
SWIDTH 1080 0
DWIDTH 15 0
BBX 13 10 1 0
BITMAP
8200
8200
8200
8200
FFE0
8210
8208
8208
8210
83E0
ENDCHAR
STARTCHAR 040B
ENCODING 1035
SWIDTH 792 0
DWIDTH 11 0
BBX 10 10 0 0
BITMAP
FF00
1000
1000
1000
1F80
1040
1040
1040
1040
1040
ENDCHAR
STARTCHAR 040C
ENCODING 1036
SWIDTH 720 0
DWIDTH 10 0
BBX 8 13 1 0
BITMAP
08
10
00
86
88
90
90
E0
90
88
84
82
81
ENDCHAR
STARTCHAR 040E
ENCODING 1038
SWIDTH 648 0
DWIDTH 9 0
BBX 7 13 1 0
BITMAP
44
38
00
82
82
44
44
28
28
10
10
10
E0
ENDCHAR
STARTCHAR 040F
ENCODING 1039
SWIDTH 792 0
DWIDTH 11 0
BBX 9 12 1 -2
BITMAP
8080
8080
8080
8080
8080
8080
8080
8080
8080
FF80
0800
0800
ENDCHAR
STARTCHAR 0410
ENCODING 1040
SWIDTH 720 0
DWIDTH 10 0
BBX 10 10 0 0
BITMAP
0C00
1200
1200
2100
2100
2100
7F80
4080
8040
8040
ENDCHAR
STARTCHAR 0411
ENCODING 1041
SWIDTH 720 0
DWIDTH 10 0
BBX 8 10 1 0
BITMAP
FE
80
80
80
FC
82
81
81
82
FC
ENDCHAR
STARTCHAR 0412
ENCODING 1042
SWIDTH 720 0
DWIDTH 10 0
BBX 8 10 1 0
BITMAP
FC
82
82
82
FC
82
81
81
82
FC
ENDCHAR
STARTCHAR 0413
ENCODING 1043
SWIDTH 576 0
DWIDTH 8 0
BBX 7 10 1 0
BITMAP
FE
80
80
80
80
80
80
80
80
80
ENDCHAR
STARTCHAR 0414
ENCODING 1044
SWIDTH 720 0
DWIDTH 10 0
BBX 9 12 0 -2
BITMAP
1F00
1100
1100
1100
1100
2100
2100
2100
4100
FF80
8080
8080
ENDCHAR
STARTCHAR 0415
ENCODING 1045
SWIDTH 648 0
DWIDTH 9 0
BBX 7 10 1 0
BITMAP
FE
80
80
80
FE
80
80
80
80
FE
ENDCHAR
STARTCHAR 0416
ENCODING 1046
SWIDTH 1080 0
DWIDTH 15 0
BBX 13 10 1 0
BITMAP
C218
2220
1240
1240
0F80
0A80
1240
2220
4210
8208
ENDCHAR
STARTCHAR 0417
ENCODING 1047
SWIDTH 648 0
DWIDTH 9 0
BBX 7 10 1 0
BITMAP
7C
82
02
04
38
04
02
02
84
78
ENDCHAR
STARTCHAR 0418
ENCODING 1048
SWIDTH 792 0
DWIDTH 11 0
BBX 9 10 1 0
BITMAP
8080
8180
8280
8480
8880
8880
9080
A080
C080
8080
ENDCHAR
STARTCHAR 0419
ENCODING 1049
SWIDTH 792 0
DWIDTH 11 0
BBX 9 13 1 0
BITMAP
2200
1C00
0000
8080
8180
8280
8480
8880
8880
9080
A080
C080
8080
ENDCHAR
STARTCHAR 041A
ENCODING 1050
SWIDTH 720 0
DWIDTH 10 0
BBX 8 10 1 0
BITMAP
86
88
90
90
E0
90
88
84
82
81
ENDCHAR
STARTCHAR 041B
ENCODING 1051
SWIDTH 720 0
DWIDTH 10 0
BBX 9 10 0 0
BITMAP
3F80
2080
2080
2080
2080
2080
2080
2080
2080
C080
ENDCHAR
STARTCHAR 041C
ENCODING 1052
SWIDTH 792 0
DWIDTH 11 0
BBX 9 10 1 0
BITMAP
C180
C180
A280
A280
9480
9480
8880
8880
8080
8080
ENDCHAR
STARTCHAR 041D
ENCODING 1053
SWIDTH 720 0
DWIDTH 10 0
BBX 8 10 1 0
BITMAP
81
81
81
81
FF
81
81
81
81
81
ENDCHAR
STARTCHAR 041E
ENCODING 1054
SWIDTH 792 0
DWIDTH 11 0
BBX 9 10 1 0
BITMAP
1C00
6300
4100
8080
8080
8080
8080
4100
6300
1C00
ENDCHAR
STARTCHAR 041F
ENCODING 1055
SWIDTH 720 0
DWIDTH 10 0
BBX 8 10 1 0
BITMAP
FF
81
81
81
81
81
81
81
81
81
ENDCHAR
STARTCHAR 0420
ENCODING 1056
SWIDTH 576 0
DWIDTH 8 0
BBX 7 10 1 0
BITMAP
F8
84
82
82
84
F8
80
80
80
80
ENDCHAR
STARTCHAR 0421
ENCODING 1057
SWIDTH 720 0
DWIDTH 10 0
BBX 8 10 1 0
BITMAP
1E
61
40
80
80
80
80
40
61
1E
ENDCHAR
STARTCHAR 0422
ENCODING 1058
SWIDTH 648 0
DWIDTH 9 0
BBX 9 10 0 0
BITMAP
FF80
0800
0800
0800
0800
0800
0800
0800
0800
0800
ENDCHAR
STARTCHAR 0423
ENCODING 1059
SWIDTH 648 0
DWIDTH 9 0
BBX 7 10 1 0
BITMAP
82
82
44
44
28
28
10
10
10
E0
ENDCHAR
STARTCHAR 0424
ENCODING 1060
SWIDTH 792 0
DWIDTH 11 0
BBX 9 10 1 0
BITMAP
0800
3E00
4900
8880
8880
8880
8880
4900
3E00
0800
ENDCHAR
STARTCHAR 0425
ENCODING 1061
SWIDTH 720 0
DWIDTH 10 0
BBX 8 10 1 0
BITMAP
81
42
24
24
18
18
24
24
42
81
ENDCHAR
STARTCHAR 0426
ENCODING 1062
SWIDTH 792 0
DWIDTH 11 0
BBX 9 12 1 -2
BITMAP
8100
8100
8100
8100
8100
8100
8100
8100
8100
FF80
0080
0080
ENDCHAR
STARTCHAR 0427
ENCODING 1063
SWIDTH 720 0
DWIDTH 10 0
BBX 8 10 1 0
BITMAP
81
81
81
81
81
7F
01
01
01
01
ENDCHAR
STARTCHAR 0428
ENCODING 1064
SWIDTH 936 0
DWIDTH 13 0
BBX 11 10 1 0
BITMAP
8420
8420
8420
8420
8420
8420
8420
8420
8420
FFE0
ENDCHAR
STARTCHAR 0429
ENCODING 1065
SWIDTH 1008 0
DWIDTH 14 0
BBX 12 12 1 -2
BITMAP
8420
8420
8420
8420
8420
8420
8420
8420
8420
FFF0
0010
0010
ENDCHAR
STARTCHAR 042A
ENCODING 1066
SWIDTH 792 0
DWIDTH 11 0
BBX 10 10 0 0
BITMAP
F000
1000
1000
1000
1F00
1080
1040
1040
1080
1F00
ENDCHAR
STARTCHAR 042B
ENCODING 1067
SWIDTH 936 0
DWIDTH 13 0
BBX 11 10 1 0
BITMAP
8020
8020
8020
8020
FC20
8220
8120
8120
8220
FC20
ENDCHAR
STARTCHAR 042C
ENCODING 1068
SWIDTH 720 0
DWIDTH 10 0
BBX 8 10 1 0
BITMAP
80
80
80
80
FC
82
81
81
82
FC
ENDCHAR
STARTCHAR 042D
ENCODING 1069
SWIDTH 720 0
DWIDTH 10 0
BBX 8 10 1 0
BITMAP
78
86
02
01
7F
01
01
02
86
78
ENDCHAR
STARTCHAR 042E
ENCODING 1070
SWIDTH 1008 0
DWIDTH 14 0
BBX 12 10 1 0
BITMAP
8380
8C60
8820
9010
F010
9010
9010
8820
8C60
8380
ENDCHAR
STARTCHAR 042F
ENCODING 1071
SWIDTH 720 0
DWIDTH 10 0
BBX 8 10 1 0
BITMAP
3F
41
41
41
21
1F
11
21
41
81
ENDCHAR
STARTCHAR 0430
ENCODING 1072
SWIDTH 576 0
DWIDTH 8 0
BBX 6 8 1 0
BITMAP
38
44
04
7C
84
84
8C
74
ENDCHAR
STARTCHAR 0431
ENCODING 1073
SWIDTH 648 0
DWIDTH 9 0
BBX 7 11 1 0
BITMAP
1E
60
40
B8
C4
82
82
82
82
44
38
ENDCHAR
STARTCHAR 0432
ENCODING 1074
SWIDTH 576 0
DWIDTH 8 0
BBX 6 8 1 0
BITMAP
F8
84
84
F8
84
84
84
F8
ENDCHAR
STARTCHAR 0433
ENCODING 1075
SWIDTH 504 0
DWIDTH 7 0
BBX 6 8 1 0
BITMAP
FC
80
80
80
80
80
80
80
ENDCHAR
STARTCHAR 0434
ENCODING 1076
SWIDTH 648 0
DWIDTH 9 0
BBX 8 10 0 -2
BITMAP
3E
22
22
22
22
42
42
FF
81
81
ENDCHAR
STARTCHAR 0435
ENCODING 1077
SWIDTH 576 0
DWIDTH 8 0
BBX 6 8 1 0
BITMAP
30
48
84
FC
80
80
44
38
ENDCHAR
STARTCHAR 0436
ENCODING 1078
SWIDTH 792 0
DWIDTH 11 0
BBX 11 8 0 0
BITMAP
C460
2480
1500
0E00
1500
2480
4440
8420
ENDCHAR
STARTCHAR 0437
ENCODING 1079
SWIDTH 504 0
DWIDTH 7 0
BBX 5 8 1 0
BITMAP
70
88
08
70
08
08
88
70
ENDCHAR
STARTCHAR 0438
ENCODING 1080
SWIDTH 648 0
DWIDTH 9 0
BBX 7 8 1 0
BITMAP
82
86
8A
92
A2
C2
82
82
ENDCHAR
STARTCHAR 0439
ENCODING 1081
SWIDTH 648 0
DWIDTH 9 0
BBX 7 11 1 0
BITMAP
44
38
00
82
86
8A
92
A2
C2
82
82
ENDCHAR
STARTCHAR 043A
ENCODING 1082
SWIDTH 576 0
DWIDTH 8 0
BBX 6 8 1 0
BITMAP
8C
90
90
E0
A0
90
88
84
ENDCHAR
STARTCHAR 043B
ENCODING 1083
SWIDTH 648 0
DWIDTH 9 0
BBX 8 8 0 0
BITMAP
3F
21
21
21
21
21
21
C1
ENDCHAR
STARTCHAR 043C
ENCODING 1084
SWIDTH 720 0
DWIDTH 10 0
BBX 8 8 1 0
BITMAP
81
C3
A5
99
99
81
81
81
ENDCHAR
STARTCHAR 043D
ENCODING 1085
SWIDTH 648 0
DWIDTH 9 0
BBX 7 8 1 0
BITMAP
82
82
82
FE
82
82
82
82
ENDCHAR
STARTCHAR 043E
ENCODING 1086
SWIDTH 648 0
DWIDTH 9 0
BBX 7 8 1 0
BITMAP
38
44
82
82
82
82
44
38
ENDCHAR
STARTCHAR 043F
ENCODING 1087
SWIDTH 648 0
DWIDTH 9 0
BBX 7 8 1 0
BITMAP
FE
82
82
82
82
82
82
82
ENDCHAR
STARTCHAR 0440
ENCODING 1088
SWIDTH 648 0
DWIDTH 9 0
BBX 7 11 1 -3
BITMAP
B8
C4
82
82
82
82
84
F8
80
80
80
ENDCHAR
STARTCHAR 0441
ENCODING 1089
SWIDTH 576 0
DWIDTH 8 0
BBX 6 8 1 0
BITMAP
38
44
80
80
80
80
44
38
ENDCHAR
STARTCHAR 0442
ENCODING 1090
SWIDTH 504 0
DWIDTH 7 0
BBX 7 8 0 0
BITMAP
FE
10
10
10
10
10
10
10
ENDCHAR
STARTCHAR 0443
ENCODING 1091
SWIDTH 576 0
DWIDTH 8 0
BBX 6 11 1 -3
BITMAP
84
84
48
48
48
30
30
30
20
20
40
ENDCHAR
STARTCHAR 0444
ENCODING 1092
SWIDTH 792 0
DWIDTH 11 0
BBX 9 14 1 -3
BITMAP
0800
0800
0800
3E00
4900
8880
8880
8880
8880
4900
3E00
0800
0800
0800
ENDCHAR
STARTCHAR 0445
ENCODING 1093
SWIDTH 648 0
DWIDTH 9 0
BBX 7 8 1 0
BITMAP
82
44
28
10
10
28
44
82
ENDCHAR
STARTCHAR 0446
ENCODING 1094
SWIDTH 720 0
DWIDTH 10 0
BBX 8 10 1 -2
BITMAP
82
82
82
82
82
82
82
FF
01
01
ENDCHAR
STARTCHAR 0447
ENCODING 1095
SWIDTH 576 0
DWIDTH 8 0
BBX 6 8 1 0
BITMAP
84
84
84
84
7C
04
04
04
ENDCHAR
STARTCHAR 0448
ENCODING 1096
SWIDTH 792 0
DWIDTH 11 0
BBX 9 8 1 0
BITMAP
8880
8880
8880
8880
8880
8880
8880
FF80
ENDCHAR
STARTCHAR 0449
ENCODING 1097
SWIDTH 864 0
DWIDTH 12 0
BBX 10 10 1 -2
BITMAP
8880
8880
8880
8880
8880
8880
8880
FFC0
0040
0040
ENDCHAR
STARTCHAR 044A
ENCODING 1098
SWIDTH 648 0
DWIDTH 9 0
BBX 8 8 0 0
BITMAP
E0
20
20
3E
21
21
21
3E
ENDCHAR
STARTCHAR 044B
ENCODING 1099
SWIDTH 792 0
DWIDTH 11 0
BBX 9 8 1 0
BITMAP
8080
8080
8080
F880
8480
8480
8480
F880
ENDCHAR
STARTCHAR 044C
ENCODING 1100
SWIDTH 576 0
DWIDTH 8 0
BBX 6 8 1 0
BITMAP
80
80
80
F8
84
84
84
F8
ENDCHAR
STARTCHAR 044D
ENCODING 1101
SWIDTH 576 0
DWIDTH 8 0
BBX 6 8 1 0
BITMAP
70
88
04
7C
04
04
88
70
ENDCHAR
STARTCHAR 044E
ENCODING 1102
SWIDTH 864 0
DWIDTH 12 0
BBX 10 8 1 0
BITMAP
8700
8880
9040
F040
9040
9040
8880
8700
ENDCHAR
STARTCHAR 044F
ENCODING 1103
SWIDTH 576 0
DWIDTH 8 0
BBX 6 8 1 0
BITMAP
7C
84
84
84
7C
24
44
84
ENDCHAR
STARTCHAR 0451
ENCODING 1105
SWIDTH 576 0
DWIDTH 8 0
BBX 6 10 1 0
BITMAP
48
00
30
48
84
FC
80
80
44
38
ENDCHAR
STARTCHAR 0452
ENCODING 1106
SWIDTH 648 0
DWIDTH 9 0
BBX 8 14 0 -3
BITMAP
40
F0
40
5E
61
41
41
41
41
41
41
01
02
0C
ENDCHAR
STARTCHAR 0453
ENCODING 1107
SWIDTH 504 0
DWIDTH 7 0
BBX 6 11 1 0
BITMAP
10
20
00
FC
80
80
80
80
80
80
80
ENDCHAR
STARTCHAR 0454
ENCODING 1108
SWIDTH 576 0
DWIDTH 8 0
BBX 6 8 1 0
BITMAP
38
44
80
F8
80
80
44
38
ENDCHAR
STARTCHAR 0455
ENCODING 1109
SWIDTH 576 0
DWIDTH 8 0
BBX 6 8 1 0
BITMAP
78
84
80
60
18
04
84
78
ENDCHAR
STARTCHAR 0456
ENCODING 1110
SWIDTH 216 0
DWIDTH 3 0
BBX 1 10 1 0
BITMAP
80
00
80
80
80
80
80
80
80
80
ENDCHAR
STARTCHAR 0457
ENCODING 1111
SWIDTH 216 0
DWIDTH 3 0
BBX 3 10 0 0
BITMAP
A0
00
40
40
40
40
40
40
40
40
ENDCHAR
STARTCHAR 0458
ENCODING 1112
SWIDTH 360 0
DWIDTH 5 0
BBX 4 13 0 -3
BITMAP
10
00
70
10
10
10
10
10
10
10
10
10
E0
ENDCHAR
STARTCHAR 0459
ENCODING 1113
SWIDTH 936 0
DWIDTH 13 0
BBX 12 8 0 0
BITMAP
3E00
2200
2200
23E0
2210
2210
2210
C3E0
ENDCHAR
STARTCHAR 045A
ENCODING 1114
SWIDTH 936 0
DWIDTH 13 0
BBX 11 8 1 0
BITMAP
8400
8400
8400
FFC0
8420
8420
8420
87C0
ENDCHAR
STARTCHAR 045B
ENCODING 1115
SWIDTH 648 0
DWIDTH 9 0
BBX 8 11 0 0
BITMAP
40
F0
40
5E
61
41
41
41
41
41
41
ENDCHAR
STARTCHAR 045C
ENCODING 1116
SWIDTH 576 0
DWIDTH 8 0
BBX 6 11 1 0
BITMAP
10
20
00
8C
90
90
E0
A0
90
88
84
ENDCHAR
STARTCHAR 045E
ENCODING 1118
SWIDTH 576 0
DWIDTH 8 0
BBX 6 14 1 -3
BITMAP
84
78
00
84
84
48
48
48
30
30
30
20
20
40
ENDCHAR
STARTCHAR 045F
ENCODING 1119
SWIDTH 648 0
DWIDTH 9 0
BBX 7 10 1 -2
BITMAP
82
82
82
82
82
82
82
FE
10
10
ENDCHAR
STARTCHAR 0490
ENCODING 1168
SWIDTH 576 0
DWIDTH 8 0
BBX 7 12 1 0
BITMAP
02
02
FE
80
80
80
80
80
80
80
80
80
ENDCHAR
STARTCHAR 0491
ENCODING 1169
SWIDTH 504 0
DWIDTH 7 0
BBX 6 10 1 0
BITMAP
04
04
FC
80
80
80
80
80
80
80
ENDCHAR
STARTCHAR 1E80
ENCODING 7808
SWIDTH 1080 0
DWIDTH 15 0
BBX 13 14 1 0
BITMAP
0400
0200
0000
0000
8208
8208
4510
4510
4510
28A0
28A0
28A0
1040
1040
ENDCHAR
STARTCHAR 1E81
ENCODING 7809
SWIDTH 792 0
DWIDTH 11 0
BBX 9 11 1 0
BITMAP
1000
0800
0000
8880
8880
5500
5500
5500
5500
2200
2200
ENDCHAR
STARTCHAR 1E82
ENCODING 7810
SWIDTH 1080 0
DWIDTH 15 0
BBX 13 14 1 0
BITMAP
0100
0200
0000
0000
8208
8208
4510
4510
4510
28A0
28A0
28A0
1040
1040
ENDCHAR
STARTCHAR 1E83
ENCODING 7811
SWIDTH 792 0
DWIDTH 11 0
BBX 9 11 1 0
BITMAP
0400
0800
0000
8880
8880
5500
5500
5500
5500
2200
2200
ENDCHAR
STARTCHAR 1E84
ENCODING 7812
SWIDTH 1080 0
DWIDTH 15 0
BBX 13 13 1 0
BITMAP
0880
0000
0000
8208
8208
4510
4510
4510
28A0
28A0
28A0
1040
1040
ENDCHAR
STARTCHAR 1E85
ENCODING 7813
SWIDTH 792 0
DWIDTH 11 0
BBX 9 10 1 0
BITMAP
2200
0000
8880
8880
5500
5500
5500
5500
2200
2200
ENDCHAR
STARTCHAR 1EA0
ENCODING 7840
SWIDTH 720 0
DWIDTH 10 0
BBX 10 12 0 -2
BITMAP
0C00
1200
1200
2100
2100
2100
7F80
4080
8040
8040
0000
0400
ENDCHAR
STARTCHAR 1EA1
ENCODING 7841
SWIDTH 576 0
DWIDTH 8 0
BBX 6 10 1 -2
BITMAP
38
44
04
7C
84
84
8C
74
00
10
ENDCHAR
STARTCHAR 1EA2
ENCODING 7842
SWIDTH 720 0
DWIDTH 10 0
BBX 10 13 0 0
BITMAP
0C00
0400
0000
0C00
1200
1200
2100
2100
2100
7F80
4080
8040
8040
ENDCHAR
STARTCHAR 1EA3
ENCODING 7843
SWIDTH 576 0
DWIDTH 8 0
BBX 6 12 1 0
BITMAP
18
08
10
00
38
44
04
7C
84
84
8C
74
ENDCHAR
STARTCHAR 1EA4
ENCODING 7844
SWIDTH 720 0
DWIDTH 10 0
BBX 10 13 0 0
BITMAP
0D00
1200
0000
0C00
1200
1200
2100
2100
2100
7F80
4080
8040
8040
ENDCHAR
STARTCHAR 1EA5
ENCODING 7845
SWIDTH 576 0
DWIDTH 8 0
BBX 6 11 1 0
BITMAP
34
48
00
38
44
04
7C
84
84
8C
74
ENDCHAR
STARTCHAR 1EA6
ENCODING 7846
SWIDTH 720 0
DWIDTH 10 0
BBX 10 13 0 0
BITMAP
2C00
1200
0000
0C00
1200
1200
2100
2100
2100
7F80
4080
8040
8040
ENDCHAR
STARTCHAR 1EA7
ENCODING 7847
SWIDTH 576 0
DWIDTH 8 0
BBX 6 11 1 0
BITMAP
B0
48
00
38
44
04
7C
84
84
8C
74
ENDCHAR
STARTCHAR 1EA8
ENCODING 7848
SWIDTH 720 0
DWIDTH 10 0
BBX 10 13 0 0
BITMAP
0CC0
1240
0000
0C00
1200
1200
2100
2100
2100
7F80
4080
8040
8040
ENDCHAR
STARTCHAR 1EA9
ENCODING 7849
SWIDTH 576 0
DWIDTH 8 0
BBX 7 12 1 0
BITMAP
06
32
48
00
38
44
04
7C
84
84
8C
74
ENDCHAR
STARTCHAR 1EAA
ENCODING 7850
SWIDTH 720 0
DWIDTH 10 0
BBX 10 14 0 0
BITMAP
1E00
0C00
1200
0000
0C00
1200
1200
2100
2100
2100
7F80
4080
8040
8040
ENDCHAR
STARTCHAR 1EAB
ENCODING 7851
SWIDTH 576 0
DWIDTH 8 0
BBX 6 14 1 0
BITMAP
68
58
00
30
48
00
38
44
04
7C
84
84
8C
74
ENDCHAR
STARTCHAR 1EAC
ENCODING 7852
SWIDTH 720 0
DWIDTH 10 0
BBX 10 15 0 -2
BITMAP
0C00
1200
0000
0C00
1200
1200
2100
2100
2100
7F80
4080
8040
8040
0000
0400
ENDCHAR
STARTCHAR 1EAD
ENCODING 7853
SWIDTH 576 0
DWIDTH 8 0
BBX 6 13 1 -2
BITMAP
30
48
00
38
44
04
7C
84
84
8C
74
00
10
ENDCHAR
STARTCHAR 1EAE
ENCODING 7854
SWIDTH 720 0
DWIDTH 10 0
BBX 10 14 0 0
BITMAP
0200
1500
0E00
0000
0C00
1200
1200
2100
2100
2100
7F80
4080
8040
8040
ENDCHAR
STARTCHAR 1EAF
ENCODING 7855
SWIDTH 576 0
DWIDTH 8 0
BBX 6 13 1 0
BITMAP
08
10
44
38
00
38
44
04
7C
84
84
8C
74
ENDCHAR
STARTCHAR 1EB0
ENCODING 7856
SWIDTH 720 0
DWIDTH 10 0
BBX 10 14 0 0
BITMAP
0800
1500
0E00
0000
0C00
1200
1200
2100
2100
2100
7F80
4080
8040
8040
ENDCHAR
STARTCHAR 1EB1
ENCODING 7857
SWIDTH 576 0
DWIDTH 8 0
BBX 6 13 1 0
BITMAP
20
10
44
38
00
38
44
04
7C
84
84
8C
74
ENDCHAR
STARTCHAR 1EB2
ENCODING 7858
SWIDTH 720 0
DWIDTH 10 0
BBX 10 14 0 0
BITMAP
0C00
1500
0E00
0000
0C00
1200
1200
2100
2100
2100
7F80
4080
8040
8040
ENDCHAR
STARTCHAR 1EB3
ENCODING 7859
SWIDTH 576 0
DWIDTH 8 0
BBX 6 13 1 0
BITMAP
30
10
44
38
00
38
44
04
7C
84
84
8C
74
ENDCHAR
STARTCHAR 1EB4
ENCODING 7860
SWIDTH 720 0
DWIDTH 10 0
BBX 10 13 0 0
BITMAP
1F00
1F00
0000
0C00
1200
1200
2100
2100
2100
7F80
4080
8040
8040
ENDCHAR
STARTCHAR 1EB5
ENCODING 7861
SWIDTH 576 0
DWIDTH 8 0
BBX 6 14 1 0
BITMAP
34
58
00
44
38
00
38
44
04
7C
84
84
8C
74
ENDCHAR
STARTCHAR 1EB6
ENCODING 7862
SWIDTH 720 0
DWIDTH 10 0
BBX 10 15 0 -2
BITMAP
1100
0E00
0000
0C00
1200
1200
2100
2100
2100
7F80
4080
8040
8040
0000
0400
ENDCHAR
STARTCHAR 1EB7
ENCODING 7863
SWIDTH 576 0
DWIDTH 8 0
BBX 6 13 1 -2
BITMAP
44
38
00
38
44
04
7C
84
84
8C
74
00
10
ENDCHAR
STARTCHAR 1EB8
ENCODING 7864
SWIDTH 648 0
DWIDTH 9 0
BBX 7 12 1 -2
BITMAP
FE
80
80
80
FE
80
80
80
80
FE
00
10
ENDCHAR
STARTCHAR 1EB9
ENCODING 7865
SWIDTH 576 0
DWIDTH 8 0
BBX 6 10 1 -2
BITMAP
30
48
84
FC
80
80
44
38
00
10
ENDCHAR
STARTCHAR 1EBA
ENCODING 7866
SWIDTH 648 0
DWIDTH 9 0
BBX 7 13 1 0
BITMAP
30
10
00
FE
80
80
80
FE
80
80
80
80
FE
ENDCHAR
STARTCHAR 1EBB
ENCODING 7867
SWIDTH 576 0
DWIDTH 8 0
BBX 6 12 1 0
BITMAP
30
10
20
00
30
48
84
FC
80
80
44
38
ENDCHAR
STARTCHAR 1EBC
ENCODING 7868
SWIDTH 648 0
DWIDTH 9 0
BBX 7 13 1 0
BITMAP
32
4C
00
FE
80
80
80
FE
80
80
80
80
FE
ENDCHAR
STARTCHAR 1EBD
ENCODING 7869
SWIDTH 576 0
DWIDTH 8 0
BBX 6 11 1 0
BITMAP
64
98
00
30
48
84
FC
80
80
44
38
ENDCHAR
STARTCHAR 1EBE
ENCODING 7870
SWIDTH 648 0
DWIDTH 9 0
BBX 7 13 1 0
BITMAP
1A
24
00
FE
80
80
80
FE
80
80
80
80
FE
ENDCHAR
STARTCHAR 1EBF
ENCODING 7871
SWIDTH 576 0
DWIDTH 8 0
BBX 6 11 1 0
BITMAP
34
48
00
30
48
84
FC
80
80
44
38
ENDCHAR
STARTCHAR 1EC0
ENCODING 7872
SWIDTH 648 0
DWIDTH 9 0
BBX 7 13 1 0
BITMAP
58
24
00
FE
80
80
80
FE
80
80
80
80
FE
ENDCHAR
STARTCHAR 1EC1
ENCODING 7873
SWIDTH 576 0
DWIDTH 8 0
BBX 6 11 1 0
BITMAP
B0
48
00
30
48
84
FC
80
80
44
38
ENDCHAR
STARTCHAR 1EC2
ENCODING 7874
SWIDTH 648 0
DWIDTH 9 0
BBX 9 13 1 0
BITMAP
1980
2480
0000
FE00
8000
8000
8000
FE00
8000
8000
8000
8000
FE00
ENDCHAR
STARTCHAR 1EC3
ENCODING 7875
SWIDTH 576 0
DWIDTH 8 0
BBX 7 12 1 0
BITMAP
06
32
48
00
30
48
84
FC
80
80
44
38
ENDCHAR
STARTCHAR 1EC4
ENCODING 7876
SWIDTH 648 0
DWIDTH 9 0
BBX 7 14 1 0
BITMAP
3C
18
24
00
FE
80
80
80
FE
80
80
80
80
FE
ENDCHAR
STARTCHAR 1EC5
ENCODING 7877
SWIDTH 576 0
DWIDTH 8 0
BBX 6 14 1 0
BITMAP
68
58
00
30
48
00
30
48
84
FC
80
80
44
38
ENDCHAR
STARTCHAR 1EC6
ENCODING 7878
SWIDTH 648 0
DWIDTH 9 0
BBX 7 15 1 -2
BITMAP
18
24
00
FE
80
80
80
FE
80
80
80
80
FE
00
10
ENDCHAR
STARTCHAR 1EC7
ENCODING 7879
SWIDTH 576 0
DWIDTH 8 0
BBX 6 13 1 -2
BITMAP
30
48
00
30
48
84
FC
80
80
44
38
00
10
ENDCHAR
STARTCHAR 1EC8
ENCODING 7880
SWIDTH 360 0
DWIDTH 5 0
BBX 3 13 1 0
BITMAP
C0
40
00
E0
40
40
40
40
40
40
40
40
E0
ENDCHAR
STARTCHAR 1EC9
ENCODING 7881
SWIDTH 216 0
DWIDTH 3 0
BBX 2 12 1 0
BITMAP
C0
40
80
00
80
80
80
80
80
80
80
80
ENDCHAR
STARTCHAR 1ECA
ENCODING 7882
SWIDTH 360 0
DWIDTH 5 0
BBX 3 12 1 -2
BITMAP
E0
40
40
40
40
40
40
40
40
E0
00
40
ENDCHAR
STARTCHAR 1ECB
ENCODING 7883
SWIDTH 216 0
DWIDTH 3 0
BBX 1 12 1 -2
BITMAP
80
00
80
80
80
80
80
80
80
80
00
80
ENDCHAR
STARTCHAR 1ECC
ENCODING 7884
SWIDTH 792 0
DWIDTH 11 0
BBX 9 12 1 -2
BITMAP
1C00
6300
4100
8080
8080
8080
8080
4100
6300
1C00
0000
0800
ENDCHAR
STARTCHAR 1ECD
ENCODING 7885
SWIDTH 648 0
DWIDTH 9 0
BBX 7 10 1 -2
BITMAP
38
44
82
82
82
82
44
38
00
10
ENDCHAR
STARTCHAR 1ECE
ENCODING 7886
SWIDTH 792 0
DWIDTH 11 0
BBX 9 13 1 0
BITMAP
1800
0800
0000
1C00
6300
4100
8080
8080
8080
8080
4100
6300
1C00
ENDCHAR
STARTCHAR 1ECF
ENCODING 7887
SWIDTH 648 0
DWIDTH 9 0
BBX 7 12 1 0
BITMAP
18
08
10
00
38
44
82
82
82
82
44
38
ENDCHAR
STARTCHAR 1ED0
ENCODING 7888
SWIDTH 792 0
DWIDTH 11 0
BBX 9 13 1 0
BITMAP
1A00
2400
0000
1C00
6300
4100
8080
8080
8080
8080
4100
6300
1C00
ENDCHAR
STARTCHAR 1ED1
ENCODING 7889
SWIDTH 648 0
DWIDTH 9 0
BBX 7 11 1 0
BITMAP
34
48
00
38
44
82
82
82
82
44
38
ENDCHAR
STARTCHAR 1ED2
ENCODING 7890
SWIDTH 792 0
DWIDTH 11 0
BBX 9 13 1 0
BITMAP
2C00
1200
0000
1C00
6300
4100
8080
8080
8080
8080
4100
6300
1C00
ENDCHAR
STARTCHAR 1ED3
ENCODING 7891
SWIDTH 648 0
DWIDTH 9 0
BBX 7 11 1 0
BITMAP
58
24
00
38
44
82
82
82
82
44
38
ENDCHAR
STARTCHAR 1ED4
ENCODING 7892
SWIDTH 792 0
DWIDTH 11 0
BBX 9 13 1 0
BITMAP
1980
2480
0000
1C00
6300
4100
8080
8080
8080
8080
4100
6300
1C00
ENDCHAR
STARTCHAR 1ED5
ENCODING 7893
SWIDTH 648 0
DWIDTH 9 0
BBX 7 12 1 0
BITMAP
06
32
48
00
38
44
82
82
82
82
44
38
ENDCHAR
STARTCHAR 1ED6
ENCODING 7894
SWIDTH 792 0
DWIDTH 11 0
BBX 9 14 1 0
BITMAP
3C00
1800
2400
0000
1C00
6300
4100
8080
8080
8080
8080
4100
6300
1C00
ENDCHAR
STARTCHAR 1ED7
ENCODING 7895
SWIDTH 648 0
DWIDTH 9 0
BBX 7 14 1 0
BITMAP
68
58
00
30
48
00
38
44
82
82
82
82
44
38
ENDCHAR
STARTCHAR 1ED8
ENCODING 7896
SWIDTH 792 0
DWIDTH 11 0
BBX 9 15 1 -2
BITMAP
0C00
1200
0000
1C00
6300
4100
8080
8080
8080
8080
4100
6300
1C00
0000
0800
ENDCHAR
STARTCHAR 1ED9
ENCODING 7897
SWIDTH 648 0
DWIDTH 9 0
BBX 7 13 1 -2
BITMAP
18
24
00
38
44
82
82
82
82
44
38
00
10
ENDCHAR
STARTCHAR 1EDA
ENCODING 7898
SWIDTH 792 0
DWIDTH 11 0
BBX 10 13 1 0
BITMAP
0400
0800
0000
1C40
6340
4140
8080
8080
8080
8080
4100
6300
1C00
ENDCHAR
STARTCHAR 1EDB
ENCODING 7899
SWIDTH 648 0
DWIDTH 9 0
BBX 8 11 1 0
BITMAP
08
11
01
3E
44
82
82
82
82
44
38
ENDCHAR
STARTCHAR 1EDC
ENCODING 7900
SWIDTH 792 0
DWIDTH 11 0
BBX 10 13 1 0
BITMAP
1000
0800
0000
1C40
6340
4140
8080
8080
8080
8080
4100
6300
1C00
ENDCHAR
STARTCHAR 1EDD
ENCODING 7901
SWIDTH 648 0
DWIDTH 9 0
BBX 8 11 1 0
BITMAP
20
11
01
3E
44
82
82
82
82
44
38
ENDCHAR
STARTCHAR 1EDE
ENCODING 7902
SWIDTH 792 0
DWIDTH 11 0
BBX 10 13 1 0
BITMAP
1800
0800
0000
1C40
6340
4140
8080
8080
8080
8080
4100
6300
1C00
ENDCHAR
STARTCHAR 1EDF
ENCODING 7903
SWIDTH 648 0
DWIDTH 9 0
BBX 8 12 1 0
BITMAP
18
08
11
01
3E
44
82
82
82
82
44
38
ENDCHAR
STARTCHAR 1EE0
ENCODING 7904
SWIDTH 792 0
DWIDTH 11 0
BBX 10 13 1 0
BITMAP
1900
2600
0000
1C40
6340
4140
8080
8080
8080
8080
4100
6300
1C00
ENDCHAR
STARTCHAR 1EE1
ENCODING 7905
SWIDTH 648 0
DWIDTH 9 0
BBX 8 11 1 0
BITMAP
64
99
01
3E
44
82
82
82
82
44
38
ENDCHAR
STARTCHAR 1EE2
ENCODING 7906
SWIDTH 792 0
DWIDTH 11 0
BBX 10 12 1 -2
BITMAP
1C40
6340
4140
8080
8080
8080
8080
4100
6300
1C00
0000
0800
ENDCHAR
STARTCHAR 1EE3
ENCODING 7907
SWIDTH 648 0
DWIDTH 9 0
BBX 8 12 1 -2
BITMAP
01
01
3E
44
82
82
82
82
44
38
00
10
ENDCHAR
STARTCHAR 1EE4
ENCODING 7908
SWIDTH 720 0
DWIDTH 10 0
BBX 8 12 1 -2
BITMAP
81
81
81
81
81
81
81
81
42
3C
00
08
ENDCHAR
STARTCHAR 1EE5
ENCODING 7909
SWIDTH 648 0
DWIDTH 9 0
BBX 7 10 1 -2
BITMAP
82
82
82
82
82
82
86
7A
00
10
ENDCHAR
STARTCHAR 1EE6
ENCODING 7910
SWIDTH 720 0
DWIDTH 10 0
BBX 8 13 1 0
BITMAP
18
08
00
81
81
81
81
81
81
81
81
42
3C
ENDCHAR
STARTCHAR 1EE7
ENCODING 7911
SWIDTH 648 0
DWIDTH 9 0
BBX 7 12 1 0
BITMAP
18
08
10
00
82
82
82
82
82
82
86
7A
ENDCHAR
STARTCHAR 1EE8
ENCODING 7912
SWIDTH 792 0
DWIDTH 11 0
BBX 10 13 1 0
BITMAP
0400
0840
0040
8180
8100
8100
8100
8100
8100
8100
8100
4200
3C00
ENDCHAR
STARTCHAR 1EE9
ENCODING 7913
SWIDTH 720 0
DWIDTH 10 0
BBX 9 11 1 0
BITMAP
0800
1080
0080
8300
8200
8200
8200
8200
8200
8600
7A00
ENDCHAR
STARTCHAR 1EEA
ENCODING 7914
SWIDTH 792 0
DWIDTH 11 0
BBX 10 13 1 0
BITMAP
1000
0840
0040
8180
8100
8100
8100
8100
8100
8100
8100
4200
3C00
ENDCHAR
STARTCHAR 1EEB
ENCODING 7915
SWIDTH 720 0
DWIDTH 10 0
BBX 9 11 1 0
BITMAP
2000
1080
0080
8300
8200
8200
8200
8200
8200
8600
7A00
ENDCHAR
STARTCHAR 1EEC
ENCODING 7916
SWIDTH 792 0
DWIDTH 11 0
BBX 10 13 1 0
BITMAP
1800
0840
0040
8180
8100
8100
8100
8100
8100
8100
8100
4200
3C00
ENDCHAR
STARTCHAR 1EED
ENCODING 7917
SWIDTH 720 0
DWIDTH 10 0
BBX 9 12 1 0
BITMAP
1800
0800
1080
0080
8300
8200
8200
8200
8200
8200
8600
7A00
ENDCHAR
STARTCHAR 1EEE
ENCODING 7918
SWIDTH 792 0
DWIDTH 11 0
BBX 10 13 1 0
BITMAP
3200
4C40
0040
8180
8100
8100
8100
8100
8100
8100
8100
4200
3C00
ENDCHAR
STARTCHAR 1EEF
ENCODING 7919
SWIDTH 720 0
DWIDTH 10 0
BBX 9 11 1 0
BITMAP
3200
4C80
0080
8300
8200
8200
8200
8200
8200
8600
7A00
ENDCHAR
STARTCHAR 1EF0
ENCODING 7920
SWIDTH 792 0
DWIDTH 11 0
BBX 10 14 1 -2
BITMAP
0040
0040
8180
8100
8100
8100
8100
8100
8100
8100
4200
3C00
0000
0800
ENDCHAR
STARTCHAR 1EF1
ENCODING 7921
SWIDTH 720 0
DWIDTH 10 0
BBX 9 12 1 -2
BITMAP
0080
0080
8300
8200
8200
8200
8200
8200
8600
7A00
0000
1000
ENDCHAR
STARTCHAR 1EF2
ENCODING 7922
SWIDTH 648 0
DWIDTH 9 0
BBX 9 14 0 0
BITMAP
1000
0800
0000
0000
8080
4100
2200
2200
1400
0800
0800
0800
0800
0800
ENDCHAR
STARTCHAR 1EF3
ENCODING 7923
SWIDTH 576 0
DWIDTH 8 0
BBX 6 14 1 -3
BITMAP
20
10
00
84
84
48
48
48
30
30
30
20
20
40
ENDCHAR
STARTCHAR 1EF4
ENCODING 7924
SWIDTH 648 0
DWIDTH 9 0
BBX 9 12 0 -2
BITMAP
8080
4100
2200
2200
1400
0800
0800
0800
0800
0800
0000
0800
ENDCHAR
STARTCHAR 1EF5
ENCODING 7925
SWIDTH 576 0
DWIDTH 8 0
BBX 6 11 1 -3
BITMAP
84
84
48
48
48
30
30
30
20
24
40
ENDCHAR
STARTCHAR 1EF6
ENCODING 7926
SWIDTH 648 0
DWIDTH 9 0
BBX 9 13 0 0
BITMAP
1800
0800
0000
8080
4100
2200
2200
1400
0800
0800
0800
0800
0800
ENDCHAR
STARTCHAR 1EF7
ENCODING 7927
SWIDTH 576 0
DWIDTH 8 0
BBX 6 15 1 -3
BITMAP
30
10
20
00
84
84
48
48
48
30
30
30
20
20
40
ENDCHAR
STARTCHAR 1EF8
ENCODING 7928
SWIDTH 648 0
DWIDTH 9 0
BBX 9 13 0 0
BITMAP
1900
2600
0000
8080
4100
2200
2200
1400
0800
0800
0800
0800
0800
ENDCHAR
STARTCHAR 1EF9
ENCODING 7929
SWIDTH 576 0
DWIDTH 8 0
BBX 6 14 1 -3
BITMAP
64
98
00
84
84
48
48
48
30
30
30
20
20
40
ENDCHAR
STARTCHAR 2013
ENCODING 8211
SWIDTH 648 0
DWIDTH 9 0
BBX 7 1 1 4
BITMAP
FE
ENDCHAR
STARTCHAR 2014
ENCODING 8212
SWIDTH 1008 0
DWIDTH 14 0
BBX 12 1 1 4
BITMAP
FFF0
ENDCHAR
STARTCHAR 2015
ENCODING 8213
SWIDTH 1008 0
DWIDTH 14 0
BBX 12 1 1 4
BITMAP
FFF0
ENDCHAR
STARTCHAR 2017
ENCODING 8215
SWIDTH 648 0
DWIDTH 9 0
BBX 9 3 0 -3
BITMAP
FF80
0000
FF80
ENDCHAR
STARTCHAR 2018
ENCODING 8216
SWIDTH 288 0
DWIDTH 4 0
BBX 2 4 1 7
BITMAP
80
80
80
40
ENDCHAR
STARTCHAR 2019
ENCODING 8217
SWIDTH 288 0
DWIDTH 4 0
BBX 2 4 1 7
BITMAP
40
40
40
80
ENDCHAR
STARTCHAR 201A
ENCODING 8218
SWIDTH 288 0
DWIDTH 4 0
BBX 2 4 0 -2
BITMAP
40
40
40
80
ENDCHAR
STARTCHAR 201B
ENCODING 8219
SWIDTH 288 0
DWIDTH 4 0
BBX 2 4 0 7
BITMAP
40
80
80
80
ENDCHAR
STARTCHAR 201C
ENCODING 8220
SWIDTH 432 0
DWIDTH 6 0
BBX 5 4 1 7
BITMAP
90
90
90
48
ENDCHAR
STARTCHAR 201D
ENCODING 8221
SWIDTH 432 0
DWIDTH 6 0
BBX 5 4 1 7
BITMAP
48
48
48
90
ENDCHAR
STARTCHAR 201E
ENCODING 8222
SWIDTH 432 0
DWIDTH 6 0
BBX 5 4 0 -2
BITMAP
48
48
48
90
ENDCHAR
STARTCHAR 2020
ENCODING 8224
SWIDTH 648 0
DWIDTH 9 0
BBX 7 10 1 1
BITMAP
10
10
10
FE
10
10
10
10
10
10
ENDCHAR
STARTCHAR 2021
ENCODING 8225
SWIDTH 648 0
DWIDTH 9 0
BBX 7 10 1 1
BITMAP
10
10
10
FE
10
10
FE
10
10
10
ENDCHAR
STARTCHAR 2022
ENCODING 8226
SWIDTH 576 0
DWIDTH 8 0
BBX 5 5 1 2
BITMAP
70
F8
F8
F8
70
ENDCHAR
STARTCHAR 2026
ENCODING 8230
SWIDTH 792 0
DWIDTH 11 0
BBX 9 2 1 0
BITMAP
8880
8880
ENDCHAR
STARTCHAR 2030
ENCODING 8240
SWIDTH 1512 0
DWIDTH 21 0
BBX 19 10 1 0
BITMAP
704000
888000
890000
890000
8A71C0
728A20
048A20
088A20
088A20
1071C0
ENDCHAR
STARTCHAR 2032
ENCODING 8242
SWIDTH 360 0
DWIDTH 5 0
BBX 2 4 1 6
BITMAP
40
40
40
80
ENDCHAR
STARTCHAR 2033
ENCODING 8243
SWIDTH 576 0
DWIDTH 8 0
BBX 5 4 1 6
BITMAP
48
48
48
90
ENDCHAR
STARTCHAR 2039
ENCODING 8249
SWIDTH 432 0
DWIDTH 6 0
BBX 4 7 1 1
BITMAP
10
20
40
80
40
20
10
ENDCHAR
STARTCHAR 203A
ENCODING 8250
SWIDTH 432 0
DWIDTH 6 0
BBX 4 7 1 1
BITMAP
80
40
20
10
20
40
80
ENDCHAR
STARTCHAR 203C
ENCODING 8252
SWIDTH 648 0
DWIDTH 9 0
BBX 5 10 2 0
BITMAP
88
88
88
88
88
88
88
00
88
88
ENDCHAR
STARTCHAR 203E
ENCODING 8254
SWIDTH 648 0
DWIDTH 9 0
BBX 9 1 0 11
BITMAP
FF80
ENDCHAR
STARTCHAR 2044
ENCODING 8260
SWIDTH 360 0
DWIDTH 5 0
BBX 6 10 -1 0
BITMAP
04
08
08
10
10
20
20
40
40
80
ENDCHAR
STARTCHAR 207F
ENCODING 8319
SWIDTH 576 0
DWIDTH 8 0
BBX 6 7 1 3
BITMAP
B8
C4
84
84
84
84
84
ENDCHAR
STARTCHAR 20A3
ENCODING 8355
SWIDTH 648 0
DWIDTH 9 0
BBX 7 10 1 0
BITMAP
7E
40
40
40
7E
40
40
F8
40
40
ENDCHAR
STARTCHAR 20A4
ENCODING 8356
SWIDTH 648 0
DWIDTH 9 0
BBX 7 10 1 0
BITMAP
1C
22
20
20
FC
20
FC
20
40
FE
ENDCHAR
STARTCHAR 20A7
ENCODING 8359
SWIDTH 1152 0
DWIDTH 16 0
BBX 14 10 1 0
BITMAP
F000
8900
8500
87F8
8544
8940
F138
8104
8144
8138
ENDCHAR
STARTCHAR 20AB
ENCODING 8363
SWIDTH 648 0
DWIDTH 9 0
BBX 8 13 1 -2
BITMAP
02
0F
02
3E
42
82
82
82
82
46
3A
00
7E
ENDCHAR
STARTCHAR 20AC
ENCODING 8364
SWIDTH 648 0
DWIDTH 9 0
BBX 8 10 0 0
BITMAP
1E
21
40
F8
40
F0
40
20
31
0E
ENDCHAR
STARTCHAR 2105
ENCODING 8453
SWIDTH 1080 0
DWIDTH 15 0
BBX 13 10 1 0
BITMAP
7040
8880
8100
8100
8A70
7288
0488
0888
0888
1070
ENDCHAR
STARTCHAR 2113
ENCODING 8467
SWIDTH 360 0
DWIDTH 5 0
BBX 4 10 0 0
BITMAP
20
50
50
60
60
40
40
C0
50
20
ENDCHAR
STARTCHAR 2116
ENCODING 8470
SWIDTH 1152 0
DWIDTH 16 0
BBX 14 10 1 0
BITMAP
C238
C244
A244
A244
9244
9238
8A00
8A00
8638
8600
ENDCHAR
STARTCHAR 2122
ENCODING 8482
SWIDTH 1008 0
DWIDTH 14 0
BBX 11 5 1 5
BITMAP
FC20
26E0
25A0
2420
2420
ENDCHAR
STARTCHAR 2126
ENCODING 8486
SWIDTH 792 0
DWIDTH 11 0
BBX 9 10 1 0
BITMAP
3E00
4100
8080
8080
8080
8080
4100
3600
1400
F780
ENDCHAR
STARTCHAR 212E
ENCODING 8494
SWIDTH 720 0
DWIDTH 10 0
BBX 8 9 1 0
BITMAP
3C
42
81
81
FF
80
80
41
3E
ENDCHAR
STARTCHAR 215B
ENCODING 8539
SWIDTH 1008 0
DWIDTH 14 0
BBX 12 10 1 0
BITMAP
4100
C200
4200
4400
44E0
4910
08E0
1110
1110
20E0
ENDCHAR
STARTCHAR 215C
ENCODING 8540
SWIDTH 1008 0
DWIDTH 14 0
BBX 12 10 1 0
BITMAP
E100
1100
6200
1200
14E0
E510
08E0
0910
1110
10E0
ENDCHAR
STARTCHAR 215D
ENCODING 8541
SWIDTH 1008 0
DWIDTH 14 0
BBX 12 10 1 0
BITMAP
F100
8100
E200
1200
14E0
E510
08E0
0910
1110
10E0
ENDCHAR
STARTCHAR 215E
ENCODING 8542
SWIDTH 1008 0
DWIDTH 14 0
BBX 12 10 1 0
BITMAP
F900
0900
1200
2200
44E0
4510
08E0
0910
1110
10E0
ENDCHAR
STARTCHAR 2202
ENCODING 8706
SWIDTH 648 0
DWIDTH 9 0
BBX 7 10 1 0
BITMAP
38
44
02
02
3E
42
82
84
84
78
ENDCHAR
STARTCHAR 2206
ENCODING 8710
SWIDTH 720 0
DWIDTH 10 0
BBX 10 10 0 0
BITMAP
0C00
1200
1200
1200
2100
2100
4080
4080
4080
FFC0
ENDCHAR
STARTCHAR 220F
ENCODING 8719
SWIDTH 792 0
DWIDTH 11 0
BBX 9 11 1 -1
BITMAP
FF80
4100
4100
4100
4100
4100
4100
4100
4100
4100
4100
ENDCHAR
STARTCHAR 2211
ENCODING 8721
SWIDTH 720 0
DWIDTH 10 0
BBX 8 11 1 -1
BITMAP
FF
40
20
10
08
04
08
10
20
40
FF
ENDCHAR
STARTCHAR 2212
ENCODING 8722
SWIDTH 792 0
DWIDTH 11 0
BBX 8 1 2 4
BITMAP
FF
ENDCHAR
STARTCHAR 2215
ENCODING 8725
SWIDTH 360 0
DWIDTH 5 0
BBX 6 10 -1 0
BITMAP
04
08
08
10
10
20
20
40
40
80
ENDCHAR
STARTCHAR 2219
ENCODING 8729
SWIDTH 360 0
DWIDTH 5 0
BBX 1 2 2 4
BITMAP
80
80
ENDCHAR
STARTCHAR 221A
ENCODING 8730
SWIDTH 792 0
DWIDTH 11 0
BBX 11 13 1 -1
BITMAP
0020
0040
0040
0080
0080
E100
2100
2100
1200
1200
0C00
0C00
0800
ENDCHAR
STARTCHAR 221E
ENCODING 8734
SWIDTH 1008 0
DWIDTH 14 0
BBX 12 7 1 1
BITMAP
38C0
4520
8210
8610
8410
4A20
31C0
ENDCHAR
STARTCHAR 222B
ENCODING 8747
SWIDTH 648 0
DWIDTH 9 0
BBX 7 14 1 -3
BITMAP
0E
10
10
10
10
10
10
10
10
10
10
10
10
E0
ENDCHAR
STARTCHAR 2248
ENCODING 8776
SWIDTH 792 0
DWIDTH 11 0
BBX 8 6 2 2
BITMAP
61
99
86
61
99
86
ENDCHAR
STARTCHAR 2260
ENCODING 8800
SWIDTH 792 0
DWIDTH 11 0
BBX 8 8 2 0
BITMAP
04
08
FF
08
10
FF
10
20
ENDCHAR
STARTCHAR 2264
ENCODING 8804
SWIDTH 792 0
DWIDTH 11 0
BBX 8 9 1 0
BITMAP
03
0C
70
80
70
0C
03
00
FF
ENDCHAR
STARTCHAR 2265
ENCODING 8805
SWIDTH 792 0
DWIDTH 11 0
BBX 8 9 2 0
BITMAP
C0
30
0E
01
0E
30
C0
00
FF
ENDCHAR
STARTCHAR 25A1
ENCODING 9633
SWIDTH 576 0
DWIDTH 8 0
BBX 6 6 1 0
BITMAP
FC
84
84
84
84
FC
ENDCHAR
STARTCHAR 25AA
ENCODING 9642
SWIDTH 360 0
DWIDTH 5 0
BBX 3 3 1 3
BITMAP
E0
E0
E0
ENDCHAR
STARTCHAR 25AB
ENCODING 9643
SWIDTH 360 0
DWIDTH 5 0
BBX 3 3 1 3
BITMAP
E0
A0
E0
ENDCHAR
STARTCHAR 25CA
ENCODING 9674
SWIDTH 792 0
DWIDTH 11 0
BBX 9 9 1 0
BITMAP
0800
1400
2200
4100
8080
4100
2200
1400
0800
ENDCHAR
STARTCHAR 25CF
ENCODING 9679
SWIDTH 576 0
DWIDTH 8 0
BBX 6 6 1 1
BITMAP
78
FC
FC
FC
FC
78
ENDCHAR
STARTCHAR 25E6
ENCODING 9702
SWIDTH 360 0
DWIDTH 5 0
BBX 3 3 1 3
BITMAP
40
A0
40
ENDCHAR
STARTCHAR F001
ENCODING 61441
SWIDTH 648 0
DWIDTH 9 0
BBX 7 11 1 0
BITMAP
38
42
40
FE
42
42
42
42
42
42
42
ENDCHAR
STARTCHAR F002
ENCODING 61442
SWIDTH 648 0
DWIDTH 9 0
BBX 7 11 1 0
BITMAP
3E
42
42
F2
42
42
42
42
42
42
42
ENDCHAR
STARTCHAR F004
ENCODING 61444
SWIDTH 216 0
DWIDTH 3 0
BBX 2 4 1 -3
BITMAP
40
40
40
80
ENDCHAR
STARTCHAR F005
ENCODING 61445
SWIDTH 648 0
DWIDTH 9 0
BBX 4 3 2 -3
BITMAP
10
10
E0
ENDCHAR
STARTCHAR F006
ENCODING 61446
SWIDTH 576 0
DWIDTH 8 0
BBX 2 6 2 4
BITMAP
40
C0
40
40
40
40
ENDCHAR
STARTCHAR F007
ENCODING 61447
SWIDTH 576 0
DWIDTH 8 0
BBX 4 6 2 4
BITMAP
60
90
10
20
40
F0
ENDCHAR
STARTCHAR F008
ENCODING 61448
SWIDTH 576 0
DWIDTH 8 0
BBX 4 6 2 4
BITMAP
E0
10
60
10
10
E0
ENDCHAR
STARTCHAR F009
ENCODING 61449
SWIDTH 576 0
DWIDTH 8 0
BBX 5 6 1 4
BITMAP
10
30
50
90
F8
10
ENDCHAR
STARTCHAR F00A
ENCODING 61450
SWIDTH 576 0
DWIDTH 8 0
BBX 4 6 2 4
BITMAP
F0
80
E0
10
10
E0
ENDCHAR
STARTCHAR F00B
ENCODING 61451
SWIDTH 576 0
DWIDTH 8 0
BBX 5 6 2 4
BITMAP
F8
08
10
20
40
40
ENDCHAR
STARTCHAR F00C
ENCODING 61452
SWIDTH 576 0
DWIDTH 8 0
BBX 5 6 1 4
BITMAP
70
88
70
88
88
70
ENDCHAR
STARTCHAR F00D
ENCODING 61453
SWIDTH 0 0
DWIDTH 0 0
BBX 1 1 0 0
BITMAP
00
ENDCHAR
STARTCHAR FB01
ENCODING 64257
SWIDTH 648 0
DWIDTH 9 0
BBX 7 11 1 0
BITMAP
38
42
40
FE
42
42
42
42
42
42
42
ENDCHAR
STARTCHAR FB02
ENCODING 64258
SWIDTH 648 0
DWIDTH 9 0
BBX 7 11 1 0
BITMAP
3E
42
42
F2
42
42
42
42
42
42
42
ENDCHAR
ENDFONT
